<svg xmlns="http://www.w3.org/2000/svg" width="1024" height="1024" viewBox="0 0 1024 1024">
<g>
<path d="M 692.57 836.89 C691.71,838.28 690.31,838.32 689.48,836.97 C689.13,836.41 688.24,836.07 687.49,836.22 C686.74,836.38 686.21,836.17 686.32,835.77 C686.70,834.24 681.76,831.83 677.23,831.35 C674.63,831.07 672.11,830.46 671.63,830.00 C671.15,829.54 669.13,829.43 667.14,829.75 C663.67,830.32 663.59,830.27 665.30,828.56 C667.76,826.10 673.71,827.12 683.02,831.58 C687.04,833.50 690.70,834.70 691.16,834.24 C691.62,833.78 692.11,693.92 692.25,523.45 L 692.50 213.50 L 739.00 213.00 C764.58,212.73 785.93,212.84 786.45,213.25 C786.99,213.68 786.77,214.01 785.95,214.02 C784.72,214.03 784.72,214.18 786.00,215.00 C786.98,215.63 771.48,215.97 741.25,215.98 L 695.00 216.00 L 694.98 527.25 C694.98,700.79 694.59,837.15 694.11,837.15 C694.11,837.15 694.11,837.15 694.11,837.14 C693.51,836.20 693.04,836.12 692.57,836.89 ZM 480.75 782.32 C478.99,783.98 476.17,784.03 474.59,782.44 C473.84,781.70 472.90,781.41 472.48,781.80 C472.07,782.18 471.94,781.83 472.20,781.00 C472.45,780.17 473.98,779.27 475.58,778.99 L 478.50 778.48 L 478.75 644.54 C478.89,570.88 478.65,510.25 478.21,509.81 C477.21,508.81 362.44,507.42 358.71,508.36 L 356.00 509.04 L 356.00 589.61 C356.00,669.47 356.02,670.22 358.07,673.10 C359.21,674.69 359.79,676.00 359.38,676.00 C358.96,676.00 359.35,676.56 360.25,677.25 C362.52,678.99 371.97,691.37 371.43,691.90 C371.19,692.14 369.95,691.36 368.67,690.16 C367.40,688.96 366.02,688.31 365.62,688.71 C365.22,689.11 365.22,688.59 365.62,687.56 C366.13,686.23 365.99,685.89 365.15,686.41 C364.43,686.85 364.06,686.64 364.23,685.87 C364.38,685.17 363.83,684.55 363.00,684.50 C362.17,684.45 361.62,683.85 361.76,683.17 C362.12,681.45 357.50,674.84 356.58,675.76 C356.17,676.16 355.98,675.85 356.17,675.05 C356.35,674.25 356.05,673.56 355.50,673.53 C355.13,673.51 354.80,673.49 354.50,673.38 C352.00,672.44 352.00,664.82 352.00,590.84 L 352.00 590.10 C352.00,512.13 352.09,508.23 353.83,506.65 C355.49,505.15 361.31,505.00 416.80,505.00 C469.34,505.00 477.86,505.20 477.39,506.43 C476.98,507.49 477.41,507.71 479.08,507.27 C480.62,506.87 481.09,507.04 480.60,507.84 C480.20,508.48 480.36,509.00 480.94,509.00 C482.60,509.00 482.41,780.75 480.75,782.32 ZM 500.76 642.53 C501.03,790.50 501.02,790.76 499.01,791.29 L 496.99 791.82 L 497.24 642.50 C497.38,560.51 497.22,493.57 496.89,493.57 L 496.88 493.57 C496.54,493.78 495.46,493.06 494.48,491.98 C493.46,490.85 493.19,490.00 493.85,490.00 C494.48,490.00 495.00,490.44 495.00,490.97 C495.00,491.50 495.60,491.71 496.34,491.42 C496.43,491.39 496.52,491.35 496.60,491.32 C497.04,491.14 497.43,490.99 497.78,491.05 C500.57,491.60 500.52,506.64 500.76,642.53 ZM 568.99 279.58 C569.03,342.42 569.01,342.88 567.01,342.73 C565.02,342.58 565.00,342.00 565.00,279.39 C565.00,226.11 565.22,216.13 566.40,215.68 C567.17,215.38 568.06,215.39 568.37,215.71 C568.69,216.02 568.96,244.76 568.99,279.58 ZM 493.78 489.36 C492.53,489.70 484.86,489.98 476.75,489.99 C465.48,490.00 462.06,489.71 462.25,488.75 C462.60,487.02 490.54,486.03 493.78,487.62 L 496.07 488.75 ZM 605.69 99.00 C605.21,99.00 603.98,100.01 602.94,101.25 C601.91,102.49 601.05,103.01 601.03,102.40 C601.01,101.80 601.89,100.51 602.98,99.52 C604.06,98.54 604.75,97.40 604.50,97.00 C604.25,96.60 605.01,95.42 606.20,94.38 C607.38,93.35 608.01,93.06 607.61,93.75 C607.21,94.44 607.29,95.00 607.79,95.00 C608.96,95.00 612.00,91.64 612.00,90.35 C612.00,89.80 613.15,88.27 614.56,86.95 C616.80,84.84 617.02,84.79 616.39,86.52 C615.67,88.47 615.69,88.47 617.83,86.60 C619.02,85.55 620.00,84.15 620.00,83.50 C620.00,82.85 621.00,81.45 622.23,80.40 C624.43,78.53 624.44,78.53 622.98,80.41 C621.59,82.22 621.63,82.26 623.75,81.13 C624.99,80.47 626.00,79.47 626.00,78.91 C626.00,78.34 626.51,78.19 627.12,78.58 C628.23,79.26 625.08,82.50 614.54,91.50 C611.96,93.70 609.11,96.29 608.20,97.25 C607.30,98.21 606.17,99.00 605.69,99.00 ZM 658.54 827.93 C658.13,828.60 653.01,829.00 644.87,829.00 C632.98,829.00 631.99,828.86 633.44,827.41 C634.70,826.15 637.41,825.81 646.54,825.77 C658.16,825.71 659.74,826.00 658.54,827.93 ZM 557.82 141.00 C557.28,141.00 555.08,142.84 552.92,145.08 C550.76,147.33 548.97,149.01 548.92,148.83 C548.25,145.93 548.60,144.80 550.76,142.83 C552.17,141.55 553.00,141.06 552.60,141.75 C552.21,142.44 552.28,143.00 552.77,143.00 C553.99,143.00 558.14,138.47 557.50,137.84 C557.22,137.55 557.97,136.46 559.17,135.41 C560.36,134.36 560.98,134.12 560.53,134.88 C559.98,135.83 560.16,136.12 561.11,135.80 C561.87,135.55 562.99,134.37 563.59,133.18 C565.07,130.23 568.08,127.00 569.35,127.00 C569.92,127.00 569.51,127.66 568.44,128.47 C567.28,129.34 567.02,129.95 567.79,129.97 C569.36,130.01 567.53,134.00 565.93,134.00 C565.39,134.00 563.56,135.57 561.87,137.50 C560.18,139.43 558.35,141.00 557.82,141.00 ZM 569.00 363.04 C569.00,363.59 564.64,363.98 558.75,363.96 C551.05,363.93 548.18,363.56 547.21,362.46 C546.08,361.18 548.36,361.03 565.21,361.20 C575.82,361.31 581.01,361.56 576.75,361.74 C572.49,361.93 569.00,362.52 569.00,363.04 ZM 566.00 816.05 C568.10,816.73 567.88,816.83 564.66,816.68 C562.55,816.58 560.60,816.15 560.33,815.72 C560.07,815.30 559.32,815.03 558.67,815.13 C558.03,815.24 556.25,814.80 554.72,814.17 C553.18,813.54 551.61,813.07 551.22,813.13 C550.82,813.19 550.28,813.15 550.00,813.05 C549.72,812.95 548.16,812.69 546.51,812.47 C544.87,812.26 543.37,811.61 543.18,811.04 C542.99,810.46 542.47,810.21 542.03,810.48 C540.85,811.21 535.00,808.97 535.00,807.80 C535.00,807.24 534.21,807.09 533.25,807.45 C531.89,807.97 531.77,807.85 532.69,806.92 C533.62,805.98 536.18,806.49 544.19,809.20 C549.86,811.11 556.53,813.25 559.00,813.96 C561.47,814.67 564.62,815.61 566.00,816.05 ZM 504.50 187.82 C499.79,192.11 498.00,193.33 498.00,192.24 C498.00,191.69 498.67,190.69 499.49,190.01 C500.31,189.33 500.77,188.44 500.52,188.03 C500.27,187.62 501.27,186.21 502.75,184.90 C504.23,183.58 504.84,183.29 504.10,184.25 C503.36,185.21 503.18,186.00 503.70,186.00 C504.96,186.00 509.16,181.50 508.51,180.85 C508.24,180.57 509.07,179.34 510.37,178.12 L 512.74 175.90 L 512.43 178.69 C512.26,180.23 511.08,182.29 509.81,183.28 C508.54,184.28 506.15,186.32 504.50,187.82 ZM 679.56 116.13 C680.45,117.02 681.02,118.72 680.84,119.91 C680.50,122.06 680.49,122.07 679.25,120.05 C678.56,118.94 677.96,117.23 677.92,116.26 C677.88,115.29 677.62,115.04 677.36,115.69 C676.27,118.36 671.66,114.52 671.39,110.72 C671.28,109.05 671.39,109.05 673.10,110.59 C674.10,111.49 674.83,112.75 674.71,113.37 C674.59,113.99 675.28,114.51 676.23,114.51 C677.17,114.52 678.68,115.25 679.56,116.13 ZM 410.00 735.50 C412.26,738.22 410.45,737.06 407.20,733.70 C404.18,730.59 402.94,727.00 404.88,727.00 C405.37,727.00 406.96,728.58 408.43,730.50 C409.90,732.42 410.57,734.00 409.93,734.00 C409.06,734.00 409.08,734.39 410.00,735.50 ZM 479.40 209.75 C478.00,211.54 476.14,213.00 475.27,213.00 C473.88,213.00 473.89,212.78 475.41,211.10 C476.35,210.06 476.71,209.05 476.21,208.85 C475.72,208.66 476.68,207.38 478.37,206.00 C480.05,204.62 481.10,204.02 480.71,204.66 C480.31,205.31 480.43,205.98 480.97,206.16 C481.51,206.35 480.80,207.96 479.40,209.75 ZM 628.00 825.92 C628.00,827.72 627.39,828.00 623.43,828.00 C619.54,828.00 619.06,827.79 620.24,826.62 C620.99,825.86 623.05,824.93 624.81,824.54 C627.60,823.93 628.00,824.10 628.00,825.92 ZM 387.42 709.34 C390.19,711.56 390.23,711.71 388.25,712.22 C386.73,712.62 385.27,711.79 382.84,709.13 C381.00,707.14 380.12,706.03 380.87,706.67 C381.63,707.32 382.75,707.65 383.37,707.42 C383.99,707.19 385.81,708.05 387.42,709.34 ZM 727.25 159.27 C728.49,160.10 729.28,160.98 729.00,161.21 C728.37,161.76 723.04,159.13 722.87,158.20 C722.14,154.18 722.35,153.04 723.64,154.11 C724.39,154.74 725.00,155.81 725.00,156.50 C725.00,157.19 726.01,158.44 727.25,159.27 ZM 616.35 825.53 C616.03,826.36 614.51,827.00 612.83,827.00 C611.12,827.00 610.14,826.58 610.50,826.00 C610.84,825.45 610.53,824.95 609.81,824.90 C609.09,824.84 610.06,824.43 611.98,823.98 C615.97,823.04 617.15,823.45 616.35,825.53 ZM 417.50 742.00 C418.52,743.65 417.41,743.13 415.90,741.25 C413.39,738.11 411.94,735.00 412.99,735.00 C413.55,735.00 414.00,735.45 414.00,736.00 C414.00,736.55 414.57,737.00 415.26,737.00 C415.95,737.00 417.08,737.90 417.77,739.00 C418.58,740.30 418.65,741.00 417.95,741.00 C417.36,741.00 417.16,741.45 417.50,742.00 ZM 531.08 805.47 C531.12,806.01 530.60,806.63 529.94,806.85 C529.27,807.08 529.01,806.79 529.36,806.22 C529.76,805.57 529.20,805.40 527.85,805.75 C526.38,806.13 525.91,805.95 526.40,805.17 C526.85,804.43 526.56,804.23 525.55,804.62 C524.67,804.96 524.00,804.69 524.00,804.00 C524.00,803.26 523.32,803.04 522.25,803.45 C520.92,803.96 520.78,803.84 521.66,802.95 C522.55,802.05 523.79,802.10 526.91,803.14 C529.16,803.89 531.03,804.94 531.08,805.47 ZM 528.71 163.80 C529.59,164.36 529.26,165.37 527.50,167.53 L 525.07 170.50 L 525.04 167.90 C525.00,165.28 528.46,161.13 529.67,162.34 C530.04,162.70 529.70,163.01 528.92,163.02 C527.87,163.03 527.82,163.23 528.71,163.80 ZM 668.75 108.56 C670.72,110.00 670.27,110.99 668.00,110.22 C666.40,109.67 664.52,107.15 664.47,105.50 C664.46,104.95 664.04,103.82 663.55,103.00 C663.00,102.08 663.50,102.24 664.83,103.40 C666.02,104.45 667.00,105.75 667.00,106.29 C667.00,106.84 667.79,107.85 668.75,108.56 ZM 536.05 158.18 C536.76,158.42 536.41,159.48 535.12,161.03 L 533.07 163.50 L 533.03 160.90 C533.01,159.42 533.96,157.49 535.23,156.40 C536.78,155.08 537.08,155.01 536.19,156.15 C535.28,157.34 535.24,157.91 536.05,158.18 ZM 520.05 172.18 C520.76,172.42 520.41,173.48 519.12,175.03 L 517.07 177.50 L 517.03 174.90 C517.01,173.42 517.96,171.49 519.23,170.40 C520.78,169.08 521.08,169.01 520.19,170.15 C519.28,171.34 519.24,171.91 520.05,172.18 ZM 583.55 948.08 C583.86,948.58 582.63,948.99 580.81,948.98 C578.56,948.97 577.94,948.69 578.86,948.11 C580.01,947.38 580.01,947.16 578.86,946.70 C578.11,946.40 579.53,946.17 582.00,946.19 C584.47,946.22 585.71,946.44 584.74,946.69 C583.77,946.94 583.23,947.57 583.55,948.08 ZM 776.27 202.07 C775.99,203.13 775.61,204.00 775.42,204.00 C774.66,204.00 772.88,199.79 773.41,199.26 C773.73,198.94 773.44,197.97 772.77,197.09 C772.11,196.22 772.73,196.54 774.17,197.82 C775.87,199.33 776.60,200.81 776.27,202.07 ZM 783.60 207.54 C783.08,211.09 780.92,209.15 780.46,204.72 C780.28,203.08 780.41,203.06 782.04,204.53 C783.01,205.41 783.71,206.76 783.60,207.54 ZM 575.77 125.00 C575.08,126.10 574.18,127.00 573.76,127.00 C572.32,127.00 573.00,123.24 574.69,121.87 C575.84,120.94 576.14,120.90 575.63,121.75 C575.22,122.44 575.36,123.00 575.95,123.00 C576.65,123.00 576.58,123.70 575.77,125.00 ZM 693.90 128.62 C695.36,129.97 696.05,131.58 695.82,133.12 L 695.46 135.50 L 694.15 133.16 C693.43,131.88 693.10,130.57 693.41,130.26 C693.73,129.94 693.45,128.97 692.80,128.09 C692.15,127.22 692.64,127.45 693.90,128.62 ZM 761.27 189.06 C760.86,190.64 760.00,191.78 760.00,190.74 C760.00,190.60 759.57,188.97 759.03,187.12 C758.10,183.88 758.14,183.82 759.93,185.43 C761.02,186.43 761.57,187.91 761.27,189.06 ZM 628.10 948.09 C629.17,948.76 628.99,948.97 627.36,948.98 C626.18,948.99 624.95,948.33 624.64,947.50 C624.20,946.35 624.80,946.03 627.28,946.12 C629.25,946.19 629.77,946.42 628.60,946.72 C627.08,947.11 626.98,947.38 628.10,948.09 Z" fill="rgb(23,23,23)"/>
<path d="M 583.54 947.47 C583.71,947.14 584.14,946.85 584.74,946.69 C585.71,946.44 584.47,946.22 582.00,946.19 C579.81,946.18 578.46,946.35 578.69,946.60 C577.33,945.93 574.64,945.38 571.50,945.33 C565.61,945.23 561.47,944.82 553.50,943.55 C551.30,943.20 546.58,942.44 543.00,941.88 C539.42,941.31 535.38,940.43 534.00,939.93 C532.62,939.43 528.23,938.56 524.24,938.01 C520.25,937.46 516.20,936.59 515.24,936.08 C514.28,935.57 504.73,932.39 494.00,929.03 C463.00,919.29 449.48,913.55 426.01,900.14 C419.14,896.21 412.99,893.00 412.34,893.00 C411.70,893.00 411.02,892.66 410.83,892.25 C410.65,891.84 407.13,889.25 403.02,886.50 C398.91,883.75 391.26,878.25 386.02,874.27 C374.09,865.22 375.49,866.32 368.89,860.74 C365.81,858.14 362.77,856.00 362.14,856.00 C361.51,856.00 361.00,855.58 361.00,855.08 C361.00,854.57 355.77,849.05 349.37,842.83 C289.04,784.05 250.54,705.71 241.10,622.50 C238.29,597.68 237.63,579.96 238.91,563.64 C242.58,516.84 249.34,485.33 263.49,448.96 C268.73,435.50 275.86,420.45 275.95,422.65 C275.98,423.29 275.24,429.82 274.31,437.15 C271.93,456.08 271.94,500.21 274.35,520.00 C281.61,579.74 300.27,630.93 332.77,680.27 C360.78,722.79 403.16,763.74 445.00,788.71 C464.85,800.55 486.89,811.60 504.23,818.38 C525.63,826.75 558.02,835.87 572.00,837.45 C574.47,837.73 581.22,838.84 587.00,839.92 C593.77,841.19 606.20,842.26 622.00,842.95 C652.65,844.28 655.02,844.56 663.00,847.68 C673.60,851.84 684.35,863.58 688.49,875.50 C689.44,878.25 690.46,881.17 690.76,882.00 C692.31,886.30 692.80,896.84 691.66,901.50 C687.17,919.97 682.61,927.89 672.50,934.82 C663.88,940.73 658.55,942.78 649.72,943.58 C645.44,943.96 641.74,944.61 641.49,945.02 C641.24,945.43 639.11,945.55 636.77,945.29 C634.33,945.02 631.13,945.65 629.21,946.45 C629.28,946.29 628.61,946.16 627.28,946.12 C624.80,946.03 624.20,946.35 624.64,947.50 C624.83,948.00 625.35,948.44 625.99,948.71 C625.37,948.48 624.87,948.10 624.70,947.66 C624.30,946.62 620.17,946.28 606.15,946.12 C590.67,945.96 584.35,946.30 583.54,947.47 ZM 628.67 946.70 C628.01,947.04 627.60,947.39 627.57,947.70 C627.08,947.26 627.39,947.03 628.60,946.72 C628.63,946.71 628.65,946.71 628.67,946.70 ZM 578.92 946.72 C579.64,947.02 579.88,947.21 579.63,947.52 C579.62,947.25 579.37,946.98 578.92,946.72 ZM 583.55 948.08 C583.52,948.03 583.50,947.99 583.48,947.94 C583.50,948.00 583.53,948.05 583.57,948.11 C583.70,948.32 583.54,948.51 583.16,948.65 C583.53,948.50 583.68,948.30 583.55,948.08 Z" fill="rgb(83,83,83)"/>
<path d="M 0.00 0.00 L 1024.00 0.00 L 1024.00 1024.00 L 0.00 1024.00 ZM 692.57 836.89 C693.04,836.12 693.51,836.20 694.11,837.14 C694.11,837.15 694.11,837.15 694.11,837.15 C694.59,837.15 694.98,700.79 694.98,527.25 L 695.00 216.00 L 741.25 215.98 C771.48,215.97 786.98,215.63 786.00,215.00 C784.72,214.18 784.72,214.03 785.95,214.02 C786.77,214.01 786.99,213.68 786.45,213.25 C786.20,213.05 781.30,212.93 773.49,212.88 C779.63,212.77 783.44,212.65 783.72,212.54 C784.21,212.36 783.46,210.94 782.28,209.31 C782.85,209.58 783.37,209.07 783.60,207.54 C783.71,206.76 783.01,205.41 782.04,204.53 C780.41,203.06 780.28,203.08 780.46,204.72 C780.59,206.04 780.88,207.15 781.24,207.95 C779.60,205.92 777.68,204.00 776.90,204.00 C776.78,204.00 776.41,203.75 775.86,203.32 C776.00,202.98 776.15,202.54 776.27,202.07 C776.60,200.81 775.87,199.33 774.17,197.82 C772.73,196.54 772.11,196.22 772.77,197.09 C773.44,197.97 773.73,198.94 773.41,199.26 C773.16,199.50 773.41,200.52 773.81,201.55 C772.71,200.55 771.42,199.33 770.08,198.00 C766.75,194.70 763.46,192.00 762.76,192.00 C762.35,192.00 761.56,191.46 760.66,190.62 C760.88,190.24 761.11,189.68 761.27,189.06 C761.57,187.91 761.02,186.43 759.93,185.43 C758.14,183.82 758.10,183.88 759.03,187.12 C759.32,188.11 759.58,189.04 759.75,189.71 C759.40,189.33 759.05,188.93 758.71,188.50 C757.17,186.57 755.26,185.00 754.46,185.00 C753.66,185.00 753.00,184.38 753.00,183.62 C753.00,182.85 751.99,181.55 750.75,180.72 C749.51,179.89 746.73,177.61 744.56,175.66 C742.40,173.71 740.26,172.34 739.80,172.62 C739.35,172.90 738.67,172.31 738.29,171.31 C737.48,169.19 733.99,166.08 732.37,166.03 C731.74,166.01 731.03,165.21 730.77,164.25 C730.52,163.29 729.01,161.84 727.41,161.03 C727.30,160.97 727.18,160.91 727.06,160.84 C728.00,161.21 728.78,161.40 729.00,161.21 C729.28,160.98 728.49,160.10 727.25,159.27 C726.01,158.44 725.00,157.19 725.00,156.50 C725.00,155.81 724.39,154.74 723.64,154.11 C722.44,153.12 722.17,154.03 722.73,157.40 C722.35,157.02 721.99,156.63 721.67,156.27 C720.11,154.46 718.43,153.24 717.92,153.55 C717.41,153.86 717.00,153.58 717.00,152.92 C717.00,151.30 712.24,147.00 710.45,147.00 C709.65,147.00 709.00,146.10 709.00,145.00 C709.00,143.90 708.38,143.00 707.63,143.00 C706.87,143.00 704.28,141.20 701.88,139.00 C699.47,136.80 697.05,135.00 696.50,135.00 C696.32,135.00 696.00,134.82 695.60,134.51 L 695.82 133.12 C696.05,131.58 695.36,129.97 693.90,128.62 C692.64,127.45 692.15,127.22 692.80,128.09 C693.45,128.97 693.73,129.94 693.41,130.26 C693.10,130.57 693.42,131.86 694.13,133.14 C693.66,132.64 693.17,132.08 692.69,131.48 C691.14,129.54 689.46,128.22 688.94,128.54 C688.42,128.86 687.60,128.07 687.11,126.79 C686.62,125.51 684.94,123.79 683.37,122.98 C682.58,122.57 681.58,121.88 680.63,121.10 C680.69,120.83 680.76,120.43 680.84,119.91 C681.02,118.72 680.45,117.02 679.56,116.13 C678.68,115.25 677.17,114.52 676.23,114.51 C675.28,114.51 674.59,113.99 674.71,113.37 C674.83,112.75 674.10,111.49 673.10,110.59 C671.39,109.05 671.28,109.05 671.39,110.72 C671.53,112.61 672.74,114.52 674.05,115.62 C673.32,115.11 672.29,114.12 671.35,113.00 C670.44,111.92 669.49,110.97 668.83,110.44 C670.35,110.71 670.45,109.80 668.75,108.56 C667.79,107.85 667.00,106.84 667.00,106.29 C667.00,105.75 666.02,104.45 664.83,103.40 C663.50,102.24 663.00,102.08 663.55,103.00 C664.04,103.82 664.46,104.95 664.47,105.50 C664.49,106.27 664.91,107.22 665.51,108.08 C664.33,107.06 662.85,105.72 661.31,104.25 C651.93,95.30 646.74,91.00 645.31,91.00 C644.59,91.00 644.00,90.21 643.99,89.25 C643.99,88.26 642.25,86.51 639.99,85.22 C637.80,83.97 636.00,82.39 636.00,81.71 C636.00,81.04 634.65,79.89 633.01,79.16 C630.52,78.06 629.79,78.07 628.65,79.17 C627.90,79.90 625.16,82.30 622.57,84.50 C622.31,84.72 622.04,84.94 621.77,85.18 C626.52,80.87 627.92,79.07 627.12,78.58 C626.51,78.19 626.00,78.34 626.00,78.91 C626.00,79.47 624.99,80.47 623.75,81.13 C621.63,82.26 621.59,82.22 622.98,80.41 C624.44,78.53 624.43,78.53 622.23,80.40 C621.00,81.45 620.00,82.85 620.00,83.50 C620.00,84.15 619.02,85.55 617.83,86.60 C615.69,88.47 615.67,88.47 616.39,86.52 C617.02,84.79 616.80,84.84 614.56,86.95 C613.15,88.27 612.00,89.80 612.00,90.35 C612.00,91.64 608.96,95.00 607.79,95.00 C607.29,95.00 607.21,94.44 607.61,93.75 C608.01,93.06 607.38,93.35 606.20,94.38 C605.01,95.42 604.25,96.60 604.50,97.00 C604.75,97.40 604.06,98.54 602.98,99.52 C601.89,100.51 601.01,101.80 601.03,102.40 C601.05,103.01 601.91,102.49 602.94,101.25 C603.98,100.01 605.21,99.00 605.69,99.00 C605.97,99.00 606.48,98.72 607.04,98.30 C603.23,101.61 601.28,103.00 600.55,103.00 C599.87,103.00 598.80,104.15 598.16,105.56 C597.52,106.96 596.63,107.89 596.18,107.61 C595.32,107.08 590.00,111.56 590.00,112.81 C590.00,113.22 588.42,114.39 586.50,115.43 C584.58,116.47 583.00,117.90 583.00,118.62 C583.00,119.34 581.99,120.44 580.75,121.07 C579.63,121.64 577.61,123.15 576.01,124.60 C576.59,123.55 576.57,123.00 575.95,123.00 C575.36,123.00 575.22,122.44 575.63,121.75 C576.14,120.90 575.84,120.94 574.69,121.87 C573.11,123.16 572.41,126.53 573.51,126.96 C572.12,128.28 570.58,129.75 569.50,130.78 C569.07,131.19 568.54,131.68 567.93,132.24 C568.49,131.16 568.64,129.99 567.79,129.97 C567.02,129.95 567.28,129.34 568.44,128.47 C569.51,127.66 569.92,127.00 569.35,127.00 C568.08,127.00 565.07,130.23 563.59,133.18 C562.99,134.37 561.87,135.55 561.11,135.80 C560.16,136.12 559.98,135.83 560.53,134.88 C560.98,134.12 560.36,134.36 559.17,135.41 C557.97,136.46 557.22,137.55 557.50,137.84 C558.14,138.47 553.99,143.00 552.77,143.00 C552.28,143.00 552.21,142.44 552.60,141.75 C553.00,141.06 552.17,141.55 550.76,142.83 C548.65,144.75 548.27,145.88 548.88,148.64 C547.23,150.08 545.49,151.63 544.29,152.75 C542.37,154.54 540.52,156.00 540.17,156.00 C539.87,156.00 538.19,157.41 536.28,159.26 C536.51,158.69 536.44,158.31 536.05,158.18 C535.24,157.91 535.28,157.34 536.19,156.15 C537.08,155.01 536.78,155.08 535.23,156.40 C533.96,157.49 533.01,159.42 533.03,160.90 L 533.05 162.46 C529.77,165.71 527.83,167.59 526.58,168.66 L 527.50 167.53 C529.26,165.37 529.59,164.36 528.71,163.80 C527.82,163.23 527.87,163.03 528.92,163.02 C529.70,163.01 530.04,162.70 529.67,162.34 C528.46,161.13 525.00,165.28 525.04,167.90 L 525.06 169.77 C524.73,169.94 524.48,170.00 524.25,170.00 C523.62,170.00 521.90,171.57 520.43,173.50 C519.92,174.17 519.39,174.79 518.88,175.33 L 519.12 175.03 C520.41,173.48 520.76,172.42 520.05,172.18 C519.24,171.91 519.28,171.34 520.19,170.15 C521.08,169.01 520.78,169.08 519.23,170.40 C517.96,171.49 517.01,173.42 517.03,174.90 L 517.06 176.87 C516.90,176.95 516.76,177.00 516.65,177.00 C516.04,177.00 513.92,178.69 511.94,180.75 C511.81,180.88 511.69,181.01 511.57,181.14 C512.02,180.32 512.35,179.44 512.43,178.69 L 512.74 175.90 L 510.37 178.12 C509.07,179.34 508.24,180.57 508.51,180.85 C509.16,181.50 504.96,186.00 503.70,186.00 C503.18,186.00 503.36,185.21 504.10,184.25 C504.84,183.29 504.23,183.58 502.75,184.90 C501.27,186.21 500.27,187.62 500.52,188.03 C500.77,188.44 500.31,189.33 499.49,190.01 C498.67,190.69 498.00,191.69 498.00,192.24 C498.00,192.61 498.20,192.71 498.65,192.53 C498.61,192.55 498.57,192.57 498.54,192.60 C496.91,193.64 493.98,195.96 492.04,197.75 C490.09,199.53 488.16,200.99 487.75,201.00 C487.34,201.00 487.00,201.69 487.00,202.52 C487.00,203.36 485.96,204.44 484.69,204.93 C481.90,205.99 476.65,212.62 477.50,214.01 C477.87,214.59 484.38,215.00 493.50,215.00 C501.96,215.00 509.13,215.41 509.44,215.91 C510.31,217.31 564.24,216.22 565.13,214.79 C565.66,213.92 566.25,213.96 567.41,214.92 C567.55,215.04 567.67,215.21 567.78,215.48 C567.38,215.43 566.87,215.50 566.40,215.68 C565.22,216.13 565.00,226.11 565.00,279.39 C565.00,342.00 565.02,342.58 567.01,342.73 C568.15,342.81 568.65,342.70 568.85,330.93 C568.99,339.60 569.20,344.01 569.50,344.02 C570.05,344.02 569.83,344.47 569.00,345.00 C567.99,345.65 572.38,345.97 582.31,345.98 C591.93,345.99 596.90,345.65 596.50,345.00 C596.16,344.45 596.73,344.00 597.77,344.00 C600.06,344.00 603.49,347.50 604.93,351.32 C605.68,353.28 606.00,424.76 606.00,587.94 C606.00,786.43 606.21,821.93 607.39,822.91 C608.06,823.46 609.95,823.92 611.83,824.01 C610.01,824.45 609.11,824.84 609.81,824.90 C610.53,824.95 610.84,825.45 610.50,826.00 C610.14,826.58 611.12,827.00 612.83,827.00 C614.51,827.00 616.03,826.36 616.35,825.53 C616.58,824.93 616.65,824.47 616.53,824.14 C618.59,824.25 620.97,824.41 623.00,824.60 C623.35,824.63 623.75,824.66 624.19,824.70 C622.59,825.14 620.91,825.95 620.24,826.62 C619.06,827.79 619.54,828.00 623.43,828.00 C627.39,828.00 628.00,827.72 628.00,825.92 C628.00,825.51 627.98,825.19 627.92,824.93 C632.12,825.17 637.68,825.39 642.50,825.50 C645.67,825.57 648.57,825.66 651.26,825.77 C649.91,825.76 648.35,825.76 646.54,825.77 C637.41,825.81 634.70,826.15 633.44,827.41 C631.99,828.86 632.98,829.00 644.87,829.00 C653.01,829.00 658.13,828.60 658.54,827.93 C659.15,826.95 659.04,826.39 657.27,826.09 C661.68,826.38 665.39,826.76 668.61,827.27 C667.17,827.37 666.06,827.79 665.30,828.56 C663.59,830.27 663.67,830.32 667.14,829.75 C669.13,829.43 671.15,829.54 671.63,830.00 C672.11,830.46 674.63,831.07 677.23,831.35 C681.76,831.83 686.70,834.24 686.32,835.77 C686.21,836.17 686.74,836.38 687.49,836.22 C688.24,836.07 689.13,836.41 689.48,836.97 C690.31,838.32 691.71,838.28 692.57,836.89 ZM 628.10 948.09 C627.88,947.94 627.70,947.82 627.57,947.70 C627.60,947.39 628.01,947.04 628.67,946.70 C629.01,946.61 629.19,946.53 629.21,946.45 C629.78,946.21 630.46,945.99 631.20,945.81 C630.93,946.00 630.74,946.23 630.64,946.50 C630.20,947.63 630.81,948.00 633.10,948.00 C634.77,948.00 636.82,947.33 637.64,946.50 C638.16,945.98 638.44,945.64 638.37,945.41 C640.01,945.47 641.30,945.33 641.49,945.02 C641.56,944.90 641.93,944.76 642.53,944.61 C642.39,944.81 642.33,945.07 642.33,945.41 C642.33,946.41 643.20,947.00 644.67,947.00 C645.95,947.00 647.00,946.63 647.00,946.17 C647.00,945.72 648.30,945.54 649.88,945.77 C651.47,946.00 653.09,945.67 653.48,945.03 C654.08,944.07 653.91,943.37 653.31,943.15 C660.14,942.11 665.12,939.88 672.50,934.82 C678.96,930.39 683.15,925.56 686.51,917.83 C685.76,919.62 685.53,921.00 686.02,921.00 C686.56,921.00 687.00,920.52 687.00,919.94 C687.00,919.36 687.52,919.20 688.15,919.60 C688.83,920.02 689.04,919.87 688.65,919.24 C687.87,917.99 688.90,914.82 689.89,915.43 C690.27,915.66 690.63,915.10 690.70,914.18 C691.20,907.69 692.06,903.48 692.95,903.18 C693.53,902.99 694.00,901.98 694.00,900.95 C694.00,899.66 693.51,899.25 692.46,899.65 C692.27,899.72 692.11,899.80 691.96,899.88 C692.69,894.73 692.15,885.85 690.76,882.00 C690.56,881.44 690.03,879.93 689.41,878.15 C690.22,880.19 691.00,881.39 691.36,881.03 C691.84,880.56 691.85,879.57 691.39,878.84 C690.38,877.22 689.85,875.23 689.65,872.35 C689.57,871.16 689.16,870.40 688.75,870.65 C688.13,871.04 687.76,869.66 687.76,867.00 C687.77,866.72 686.75,865.44 685.50,864.15 C682.40,860.93 681.43,863.09 684.49,866.40 C685.84,867.86 686.91,869.28 686.87,869.56 C686.82,869.83 687.58,872.57 688.56,875.71 L 688.49 875.50 C686.40,869.48 682.62,863.51 678.03,858.53 C680.06,860.53 681.69,862.00 681.91,862.00 C682.18,862.00 681.90,861.50 681.28,860.88 C680.66,860.26 680.37,859.20 680.63,858.53 C681.23,856.96 674.23,850.74 672.84,851.60 C672.32,851.92 673.53,853.81 675.72,856.18 C672.33,852.94 668.61,850.27 664.86,848.49 C666.55,849.11 667.73,849.47 667.85,849.38 C669.67,848.09 656.75,842.42 654.77,843.64 C654.18,844.01 653.98,843.85 654.33,843.28 C655.18,841.90 649.17,840.99 640.50,841.17 C636.65,841.25 634.96,841.50 636.75,841.72 C638.54,841.95 640.00,842.48 640.00,842.92 C640.00,843.36 643.51,843.95 647.79,844.25 C649.81,844.39 651.89,844.66 653.89,845.04 C648.54,844.17 640.33,843.75 622.00,842.95 C621.27,842.92 620.55,842.88 619.84,842.85 C620.65,842.69 620.45,842.31 619.64,841.50 C618.80,840.65 616.35,840.00 614.03,840.00 C610.50,840.00 610.10,840.21 611.21,841.46 C611.58,841.88 612.35,842.25 613.33,842.51 C609.86,842.31 606.60,842.09 603.59,841.86 C604.47,841.66 604.65,841.25 604.36,840.50 C604.01,839.58 602.49,839.00 600.42,839.00 C597.85,839.00 597.20,839.35 597.64,840.50 C597.78,840.87 598.10,841.18 598.57,841.42 C596.79,841.25 595.13,841.07 593.60,840.89 C595.86,840.95 595.87,840.72 594.57,839.42 C593.70,838.56 591.76,837.95 590.25,838.07 C588.74,838.19 586.68,837.94 585.68,837.51 C584.60,837.05 583.39,837.22 582.68,837.93 C581.77,838.85 581.90,838.97 583.25,838.45 C584.22,838.08 585.00,838.25 585.00,838.82 C585.00,839.10 585.25,839.41 585.64,839.67 C580.20,838.68 574.28,837.71 572.00,837.45 C568.99,837.11 565.11,836.42 560.68,835.46 C562.20,835.74 563.39,835.91 563.97,835.93 L 566.45 836.00 L 564.24 834.45 C563.02,833.60 561.46,833.00 560.76,833.11 C560.07,833.22 558.79,833.00 557.91,832.61 C557.04,832.23 554.79,831.82 552.91,831.71 C551.04,831.59 549.28,831.25 549.00,830.95 C548.72,830.64 544.67,829.36 540.00,828.10 C535.33,826.84 531.01,825.41 530.42,824.92 C529.82,824.43 527.57,823.80 525.42,823.53 C523.26,823.25 519.25,822.17 516.50,821.11 C499.25,814.51 495.00,812.67 495.00,811.83 C495.00,811.31 494.60,811.13 494.10,811.44 C492.86,812.20 486.79,809.54 487.70,808.63 C488.11,808.23 487.59,808.22 486.56,808.62 C485.14,809.16 484.88,809.01 485.49,808.02 C486.02,807.15 485.92,806.93 485.20,807.38 C484.59,807.76 480.02,806.02 475.04,803.52 C470.07,801.02 465.99,799.32 465.98,799.74 C465.98,800.16 465.49,799.83 464.91,799.00 C463.97,797.67 463.90,797.67 464.30,799.00 C464.41,799.37 464.61,799.68 464.85,799.91 C461.73,798.24 458.61,796.53 455.51,794.79 C455.56,794.76 455.61,794.73 455.66,794.68 C456.02,794.32 455.15,792.94 453.72,791.61 C452.29,790.29 450.87,789.46 450.56,789.77 C450.25,790.08 450.00,789.81 450.00,789.17 C450.00,788.53 449.66,788.05 449.25,788.12 C447.15,788.45 445.96,787.88 446.60,786.85 C447.01,786.18 446.87,785.96 446.28,786.33 C445.71,786.68 442.42,785.06 438.96,782.73 C435.51,780.40 431.53,777.73 430.13,776.79 C428.73,775.85 427.38,775.28 427.13,775.53 C426.88,775.78 426.07,775.12 425.33,774.06 C423.33,771.21 407.03,758.86 406.06,759.46 C405.10,760.05 402.75,757.58 403.53,756.80 C403.82,756.52 403.36,755.72 402.52,755.02 C401.32,754.02 401.00,754.02 401.00,755.00 C401.00,755.94 400.58,755.91 399.25,754.87 C398.03,753.91 397.73,753.71 398.22,754.40 C396.26,752.69 394.30,750.95 392.36,749.18 C393.18,749.78 393.92,750.25 394.50,750.50 L 394.84 750.66 C397.36,751.78 397.87,752.00 397.98,751.88 C398.00,751.85 398.00,751.80 398.00,751.73 C398.00,751.72 398.00,751.71 398.00,751.70 C398.00,751.53 396.40,749.84 394.44,747.95 C392.10,745.68 391.13,745.16 391.61,746.41 C392.12,747.75 391.99,748.11 391.17,747.61 C390.53,747.21 390.00,745.93 390.00,744.77 C390.00,743.62 389.77,742.90 389.48,743.19 C389.19,743.48 385.30,739.96 380.83,735.39 C376.36,730.81 372.32,727.30 371.85,727.59 C371.38,727.88 371.00,727.28 371.00,726.25 C371.00,725.22 369.59,723.05 367.87,721.44 C365.44,719.16 364.99,718.97 365.84,720.62 C366.44,721.78 366.73,722.94 366.49,723.18 C366.46,723.21 366.46,723.27 366.48,723.34 C364.81,721.50 363.15,719.65 361.51,717.78 C361.62,717.56 361.59,716.97 361.52,715.97 C361.43,714.85 360.62,713.19 359.70,712.27 C358.15,710.72 358.07,710.77 358.48,712.91 C358.62,713.61 358.90,714.43 359.23,715.16 C358.31,714.09 357.40,713.01 356.49,711.94 C356.56,711.72 356.65,710.97 356.72,710.09 C356.85,708.28 354.64,705.51 352.50,704.82 C351.95,704.64 351.63,704.12 351.78,703.66 C352.16,702.52 345.82,695.43 344.73,695.77 C344.25,695.93 344.12,695.62 344.44,695.10 C344.95,694.27 338.70,685.03 333.08,678.30 C332.06,677.09 331.44,675.89 331.69,675.65 C331.93,675.40 331.68,674.92 331.12,674.57 C329.88,673.81 330.19,675.64 331.46,678.27 C330.48,676.75 329.50,675.23 328.54,673.71 C328.61,673.68 328.69,673.63 328.78,673.58 C329.77,673.01 329.54,672.00 327.80,669.17 C326.55,667.15 325.64,665.28 325.77,665.00 C325.91,664.72 325.34,663.71 324.52,662.75 C323.69,661.79 323.24,661.00 323.51,661.00 C323.78,661.00 323.08,660.08 321.96,658.96 C320.84,657.84 320.20,656.49 320.52,655.96 C320.85,655.43 320.61,655.00 320.00,655.00 C319.39,655.00 319.20,654.48 319.60,653.85 C319.99,653.20 319.87,652.96 319.33,653.30 C318.34,653.91 311.28,640.42 311.75,638.84 C311.89,638.38 311.48,638.00 310.83,638.00 C310.19,638.00 309.93,637.74 310.25,637.42 C310.57,637.10 309.73,635.21 308.38,633.23 C307.03,631.24 306.16,629.03 306.43,628.31 C306.71,627.59 306.47,627.00 305.91,627.00 C305.34,627.00 305.16,626.55 305.50,626.00 C305.84,625.45 305.70,625.00 305.19,625.00 C303.89,625.00 299.88,615.01 300.66,613.73 C301.02,613.16 300.85,612.98 300.29,613.32 C299.67,613.70 297.20,607.68 294.09,598.23 C286.36,574.72 284.66,568.31 281.37,550.25 C280.35,544.61 279.16,540.00 278.73,540.00 C278.31,540.00 278.24,538.90 278.58,537.56 C278.91,536.21 278.82,534.53 278.38,533.81 C277.93,533.09 277.69,531.49 277.85,530.25 C278.01,529.01 277.40,527.25 276.49,526.34 C275.53,525.39 275.14,525.11 275.14,526.13 C274.87,524.20 274.62,522.27 274.39,520.33 C274.61,520.97 274.92,521.53 275.25,521.86 C276.25,522.88 276.56,522.72 276.82,521.06 C277.00,519.93 276.43,518.29 275.57,517.43 C274.45,516.31 274.12,516.11 274.03,517.12 C273.83,515.11 273.65,512.92 273.49,510.57 C273.70,511.30 273.96,512.05 274.25,512.68 L 275.50 515.46 L 275.81 512.22 C276.00,510.26 275.51,508.37 274.56,507.42 C273.84,506.70 273.45,506.35 273.24,506.44 C273.07,503.37 272.93,500.12 272.82,496.75 C272.96,497.33 273.10,497.89 273.25,498.38 L 274.50 502.50 L 274.80 496.23 C275.02,491.59 274.69,489.55 273.55,488.41 C273.13,487.99 272.83,487.72 272.61,487.63 C272.51,481.12 272.51,474.42 272.61,467.97 C272.64,467.91 272.67,467.84 272.69,467.74 C272.94,466.77 273.57,466.23 274.08,466.55 C274.61,466.88 274.97,464.24 274.92,460.31 C274.85,453.51 274.85,453.50 273.50,457.00 C273.25,457.65 273.02,458.48 272.82,459.40 C272.92,456.30 273.05,453.31 273.20,450.49 C273.40,450.80 273.78,450.60 274.50,450.00 C275.34,449.30 275.98,447.17 275.96,445.13 L 275.93 441.50 L 274.50 444.00 C274.09,444.72 273.71,445.66 273.44,446.59 C273.61,444.09 273.81,441.77 274.02,439.68 C273.97,440.94 274.29,440.84 275.15,439.97 C275.96,439.15 277.13,434.49 277.80,429.39 C279.33,417.75 279.32,417.34 277.37,416.59 C275.60,415.91 272.72,417.73 273.52,419.03 C273.79,419.48 273.36,420.50 272.56,421.30 C271.75,422.10 271.37,423.04 271.71,423.38 C272.05,423.72 271.78,424.00 271.11,424.00 C270.43,424.00 270.16,424.45 270.50,425.00 C270.84,425.55 270.61,426.00 270.00,426.00 C269.39,426.00 269.13,426.40 269.43,426.89 C270.21,428.15 265.93,438.07 264.89,437.43 C264.41,437.14 264.29,437.59 264.62,438.45 C264.95,439.30 264.69,440.00 264.05,440.00 C263.41,440.00 263.16,440.45 263.50,441.00 C263.84,441.55 263.61,442.00 263.00,442.00 C262.39,442.00 262.13,442.40 262.43,442.89 C263.18,444.10 261.03,450.00 259.84,450.00 C259.31,450.00 259.11,450.36 259.38,450.81 C259.66,451.25 257.61,458.34 254.84,466.56 C250.01,480.85 249.03,484.35 248.71,488.25 C248.64,489.21 248.26,490.00 247.87,490.00 C247.00,490.00 242.95,507.51 242.53,513.05 C242.37,515.28 241.95,517.38 241.62,517.72 C241.28,518.06 241.00,518.93 241.00,519.67 C241.00,520.40 241.60,521.00 242.34,521.00 C243.22,521.00 244.12,518.50 244.97,513.75 C245.62,510.07 246.41,506.19 247.32,502.16 C243.37,520.50 240.75,540.14 238.91,563.64 C238.72,566.02 238.57,568.44 238.47,570.90 C238.41,564.08 238.29,559.62 238.16,560.01 C237.98,560.56 237.42,560.76 236.91,560.45 C235.41,559.52 235.74,599.79 237.25,601.50 C237.94,602.29 238.51,602.94 238.52,602.96 C238.52,602.96 238.53,598.22 238.52,591.28 C238.91,600.49 239.76,610.69 241.10,622.50 C242.21,632.30 243.73,642.03 245.63,651.66 C243.95,643.21 242.56,634.72 241.48,626.25 C241.11,623.36 240.44,621.00 239.98,621.00 C239.52,621.00 238.94,620.21 238.69,619.25 C238.44,618.29 238.18,619.21 238.12,621.31 C238.05,623.59 238.40,624.87 238.99,624.51 C239.56,624.15 239.72,624.57 239.35,625.52 C238.57,627.56 241.00,644.88 242.17,645.60 C242.64,645.90 242.79,646.53 242.49,647.01 C241.87,648.03 245.59,667.33 247.10,670.94 C247.67,672.29 248.56,675.44 249.09,677.94 C250.11,682.80 250.34,683.64 251.32,686.00 C254.31,693.17 260.76,713.57 260.29,714.34 C259.93,714.92 260.22,714.98 261.02,714.49 C261.97,713.90 262.17,714.13 261.71,715.30 C261.37,716.20 261.53,717.21 262.06,717.54 C262.59,717.87 262.77,718.56 262.46,719.07 C262.14,719.58 262.29,720.00 262.78,720.00 C264.11,720.00 266.13,724.96 265.35,726.32 C264.98,726.97 265.06,727.16 265.52,726.73 C266.59,725.76 269.22,731.84 268.34,733.26 C267.96,733.87 268.17,734.01 268.85,733.60 C269.88,732.95 270.52,734.86 270.09,737.32 C270.01,737.78 270.33,737.91 270.79,737.63 C271.51,737.19 275.64,745.52 275.43,746.99 C275.39,747.27 275.96,748.10 276.69,748.83 C277.42,749.56 277.76,750.57 277.45,751.08 C277.14,751.59 277.39,752.00 278.00,752.00 C278.61,752.00 278.84,752.45 278.50,753.00 C278.16,753.55 278.35,754.00 278.92,754.00 C279.48,754.00 280.68,755.42 281.58,757.16 C282.48,758.89 283.73,760.90 284.36,761.62 C284.99,762.34 285.85,762.94 286.27,762.96 C287.28,763.01 276.10,741.83 274.37,740.40 C273.63,739.80 273.29,739.04 273.61,738.73 C273.92,738.41 272.59,734.63 270.65,730.33 C263.55,714.61 257.49,697.85 252.61,680.63 C264.79,723.38 284.75,763.74 311.41,799.49 C310.60,798.63 309.88,798.06 309.42,798.04 C308.82,798.02 308.32,797.44 308.31,796.75 C308.29,795.04 297.10,779.00 295.93,779.00 C295.42,779.00 295.09,778.66 295.20,778.25 C295.65,776.53 293.75,773.00 292.37,773.00 C291.55,773.00 291.17,772.54 291.51,771.98 C292.21,770.85 288.33,764.00 286.98,764.00 C286.51,764.00 286.19,764.90 286.27,766.00 C286.36,767.10 286.81,768.00 287.27,768.00 C287.74,768.00 287.84,768.45 287.50,769.00 C287.16,769.55 287.28,770.00 287.77,770.00 C288.57,770.00 293.94,778.11 300.02,788.50 C303.15,793.84 308.66,799.99 309.58,799.16 C309.99,798.80 309.99,799.07 309.59,799.77 C309.16,800.52 310.16,802.68 312.07,805.08 C314.13,807.69 315.61,808.79 316.24,808.16 C316.72,807.68 315.77,805.60 314.40,803.45 C316.02,805.56 317.66,807.66 319.33,809.73 C319.10,809.52 318.87,809.31 318.64,809.11 C315.60,806.60 315.95,810.06 319.13,814.01 C321.33,816.74 322.60,817.65 323.11,816.82 C323.52,816.16 322.97,814.59 321.92,812.93 C330.49,823.36 339.65,833.35 349.37,842.83 C355.77,849.05 361.00,854.57 361.00,855.08 C361.00,855.58 361.51,856.00 362.14,856.00 C362.77,856.00 365.81,858.14 368.89,860.74 C372.16,863.51 373.46,864.63 375.40,866.16 C374.66,865.59 374.03,865.11 373.58,864.76 C371.97,863.52 370.39,862.57 370.08,862.65 C369.76,862.73 368.60,862.38 367.50,861.85 C364.88,860.61 371.92,866.98 379.35,872.59 C382.57,875.01 385.53,877.00 385.93,877.00 C388.40,877.00 387.22,875.22 382.21,871.38 C383.31,872.22 384.56,873.17 386.02,874.27 C391.26,878.25 398.91,883.75 403.02,886.50 C407.13,889.25 410.65,891.84 410.83,892.25 C411.02,892.66 411.70,893.00 412.34,893.00 C412.75,893.00 415.29,894.25 418.81,896.14 C416.34,895.50 418.76,898.40 423.00,900.81 C425.75,902.38 427.67,903.99 427.28,904.39 C426.88,904.78 427.41,904.78 428.44,904.38 C429.56,903.95 430.09,904.05 429.74,904.62 C429.41,905.14 430.02,905.57 431.08,905.57 C432.68,905.57 432.45,905.08 429.76,902.74 C427.97,901.18 425.27,899.65 423.77,899.33 C422.26,899.02 421.28,898.36 421.58,897.88 C421.61,897.82 421.65,897.76 421.68,897.70 C423.05,898.46 424.52,899.28 426.01,900.14 C440.57,908.46 451.31,913.83 464.76,919.03 C464.32,919.14 464.00,919.53 464.00,920.00 C464.00,920.55 464.45,921.00 465.00,921.00 C465.55,921.00 466.00,920.55 466.00,920.00 C466.00,919.79 465.94,919.60 465.83,919.44 C467.19,919.96 468.58,920.48 470.00,921.00 C469.45,921.00 469.00,921.45 469.00,922.00 C469.00,922.55 469.45,923.00 470.00,923.00 C470.55,923.00 471.00,922.55 471.00,922.00 C471.00,921.69 470.86,921.42 470.64,921.23 C477.39,923.68 484.95,926.19 494.00,929.03 C499.01,930.60 503.76,932.13 507.50,933.37 C504.17,932.37 499.80,931.00 495.18,929.50 L 494.86 929.40 C479.96,924.55 477.49,923.75 477.08,924.35 C477.00,924.47 477.00,924.64 477.00,924.85 L 477.00 924.87 C477.00,926.00 501.90,934.18 503.09,933.44 C503.59,933.13 504.00,933.41 504.00,934.05 C504.00,934.69 504.66,934.96 505.47,934.65 C506.28,934.34 507.22,934.55 507.57,935.11 C507.92,935.68 508.82,935.90 509.57,935.61 C510.32,935.32 511.20,935.52 511.53,936.04 C512.29,937.29 513.72,937.27 514.50,936.00 C514.54,935.93 514.57,935.87 514.59,935.80 C514.91,935.93 515.13,936.02 515.24,936.08 C516.20,936.59 520.25,937.46 524.24,938.01 C525.30,938.16 526.38,938.33 527.43,938.50 C525.64,938.43 523.93,938.58 523.20,939.06 C521.67,940.04 521.69,940.09 523.38,939.56 C524.41,939.23 525.76,939.37 526.38,939.88 C526.99,940.38 528.40,940.98 529.50,941.22 C531.74,941.70 533.00,941.29 533.00,940.07 C533.00,939.87 532.84,939.69 532.56,939.52 C533.18,939.67 533.67,939.81 534.00,939.93 C535.38,940.43 539.42,941.31 543.00,941.88 C546.58,942.44 551.30,943.20 553.50,943.55 C561.47,944.82 565.61,945.23 571.50,945.33 C571.85,945.34 572.20,945.35 572.54,945.37 C570.85,945.44 570.37,945.81 570.69,946.63 C571.01,947.47 572.63,947.97 574.86,947.92 C576.86,947.88 577.89,947.60 577.14,947.30 C576.26,946.95 576.15,946.53 576.82,946.11 C576.89,946.07 576.93,946.03 576.95,945.99 C577.65,946.17 578.24,946.38 578.69,946.60 C578.72,946.63 578.78,946.67 578.86,946.70 L 578.92 946.72 C579.37,946.98 579.62,947.25 579.63,947.52 C579.50,947.68 579.25,947.86 578.86,948.11 C577.94,948.69 578.56,948.97 580.81,948.98 C581.84,948.99 582.69,948.86 583.16,948.65 C583.54,948.51 583.70,948.32 583.57,948.11 C583.53,948.05 583.50,948.00 583.48,947.94 C583.43,947.79 583.45,947.62 583.54,947.47 C583.99,946.82 586.14,946.42 590.62,946.23 C588.72,946.42 588.61,946.79 589.17,947.42 C591.01,949.50 621.50,949.73 622.30,947.67 C622.71,946.59 619.42,946.29 605.32,946.12 C604.57,946.11 603.84,946.11 603.15,946.10 C604.11,946.10 605.11,946.11 606.15,946.12 C620.17,946.28 624.30,946.62 624.70,947.66 C624.87,948.10 625.37,948.48 625.99,948.71 C626.41,948.88 626.89,948.99 627.36,948.98 C628.99,948.97 629.17,948.76 628.10,948.09 ZM 500.76 642.53 C500.55,524.02 500.56,497.42 498.72,492.20 L 500.50 494.42 L 501.00 642.96 C501.27,724.66 501.83,792.00 502.23,792.62 C502.63,793.24 504.43,794.30 506.23,794.98 C508.03,795.66 510.85,796.79 512.50,797.50 C517.72,799.74 519.96,800.65 526.30,802.94 C523.62,802.09 522.49,802.11 521.66,802.95 C520.78,803.84 520.92,803.96 522.25,803.45 C523.32,803.04 524.00,803.26 524.00,804.00 C524.00,804.69 524.67,804.96 525.55,804.62 C526.56,804.23 526.85,804.43 526.40,805.17 C525.91,805.95 526.38,806.13 527.85,805.75 C529.20,805.40 529.76,805.57 529.36,806.22 C529.01,806.79 529.27,807.08 529.94,806.85 C530.60,806.63 531.12,806.01 531.08,805.47 C531.04,805.05 529.89,804.32 528.30,803.66 C529.68,804.15 531.23,804.70 533.00,805.33 C548.36,810.79 567.51,816.47 575.41,817.91 C578.66,818.51 581.55,819.22 581.83,819.50 C582.70,820.37 584.55,820.05 585.80,818.80 C587.55,817.05 587.55,366.95 585.80,365.20 C584.95,364.35 579.20,364.00 566.30,364.00 C564.07,364.00 562.02,363.99 560.15,363.96 C565.32,363.92 569.00,363.55 569.00,363.04 C569.00,362.52 572.49,361.93 576.75,361.74 C581.01,361.56 575.82,361.31 565.21,361.20 C548.36,361.03 546.08,361.18 547.21,362.46 C547.33,362.60 547.48,362.72 547.66,362.84 C545.30,362.29 530.55,362.00 504.93,362.00 C468.93,362.00 461.62,362.23 460.43,363.43 C459.22,364.64 459.00,374.35 459.02,426.18 C459.03,466.14 459.37,486.98 460.00,486.00 C460.71,484.90 460.97,484.85 460.98,485.81 C461.00,486.81 464.06,487.08 475.11,487.01 C468.38,487.32 462.41,487.96 462.25,488.75 C462.06,489.71 465.48,490.00 476.75,489.99 C484.86,489.98 492.53,489.70 493.78,489.36 L 495.60 488.87 C496.35,489.50 497.14,490.27 497.80,491.06 C497.79,491.06 497.79,491.05 497.78,491.05 C497.43,490.99 497.04,491.14 496.60,491.32 C496.52,491.35 496.43,491.39 496.34,491.42 C495.60,491.71 495.00,491.50 495.00,490.97 C495.00,490.44 494.48,490.00 493.85,490.00 C493.19,490.00 493.46,490.85 494.48,491.98 C495.46,493.06 496.54,493.78 496.88,493.57 L 496.89 493.57 C497.22,493.57 497.38,560.51 497.24,642.50 L 496.99 791.82 L 499.01 791.29 C501.02,790.76 501.03,790.50 500.76,642.53 ZM 480.75 782.32 C482.41,780.75 482.60,509.00 480.94,509.00 C480.36,509.00 480.20,508.48 480.60,507.84 C481.09,507.04 480.62,506.87 479.08,507.27 C477.41,507.71 476.98,507.49 477.39,506.43 C477.86,505.20 469.34,505.00 416.80,505.00 C361.31,505.00 355.49,505.15 353.83,506.65 C352.09,508.23 352.00,512.13 352.00,590.10 L 352.00 590.84 C352.00,664.82 352.00,672.44 354.50,673.38 C354.80,673.49 355.13,673.51 355.50,673.53 C356.05,673.56 356.35,674.25 356.17,675.05 C355.98,675.85 356.17,676.16 356.58,675.76 C357.50,674.84 362.12,681.45 361.76,683.17 C361.62,683.85 362.17,684.45 363.00,684.50 C363.83,684.55 364.38,685.17 364.23,685.87 C364.06,686.64 364.43,686.85 365.15,686.41 C365.99,685.89 366.13,686.23 365.62,687.56 C365.22,688.59 365.22,689.11 365.62,688.71 C366.02,688.31 367.40,688.96 368.67,690.16 C369.95,691.36 371.19,692.14 371.43,691.90 C371.45,691.88 371.46,691.85 371.45,691.80 C371.81,692.39 372.00,692.79 372.00,692.92 C372.00,693.52 372.34,694.00 372.75,694.00 C373.16,694.00 374.40,695.35 375.50,697.00 C376.60,698.65 378.06,700.00 378.75,700.00 C379.44,700.00 380.00,700.47 380.00,701.05 C380.00,701.55 382.73,704.76 386.37,708.58 C385.09,707.73 383.86,707.24 383.37,707.42 C382.75,707.65 381.63,707.32 380.87,706.67 C380.12,706.03 381.00,707.14 382.84,709.13 C385.27,711.79 386.73,712.62 388.25,712.22 C388.86,712.06 389.28,711.94 389.49,711.78 C397.63,720.08 397.86,720.32 404.94,727.01 C404.92,727.00 404.90,727.00 404.88,727.00 C402.94,727.00 404.18,730.59 407.20,733.70 C410.45,737.06 412.26,738.22 410.00,735.50 C409.08,734.39 409.06,734.00 409.93,734.00 C410.57,734.00 409.90,732.42 408.43,730.50 C408.23,730.23 408.02,729.97 407.82,729.72 C409.76,731.56 411.80,733.50 413.59,735.20 C413.43,735.07 413.22,735.00 412.99,735.00 C411.94,735.00 413.39,738.11 415.90,741.25 C417.41,743.13 418.52,743.65 417.50,742.00 C417.16,741.45 417.36,741.00 417.95,741.00 C418.57,741.00 418.59,740.46 418.02,739.43 C419.97,741.30 426.24,746.46 432.00,750.93 C437.77,755.41 444.16,760.41 446.18,762.04 C448.21,763.67 450.15,765.00 450.50,765.00 C450.85,765.00 453.10,766.35 455.50,768.00 C457.90,769.65 460.57,771.00 461.43,771.00 C462.29,771.00 463.00,771.41 463.00,771.92 C463.00,772.42 465.36,774.22 468.25,775.92 C471.15,777.62 474.62,778.89 476.00,778.75 L 478.24 778.53 L 475.58 778.99 C473.98,779.27 472.45,780.17 472.20,781.00 C471.94,781.83 472.07,782.18 472.48,781.80 C472.90,781.41 473.84,781.70 474.59,782.44 C476.17,784.03 478.99,783.98 480.75,782.32 ZM 692.50 213.50 L 692.25 523.45 C692.11,693.92 691.62,833.78 691.16,834.24 C691.07,834.33 690.86,834.36 690.55,834.33 C691.19,828.53 691.68,723.91 692.00,523.92 ZM 343.92 841.42 C350.23,847.75 355.04,851.80 356.16,851.71 C357.61,851.60 356.98,850.54 353.27,846.76 C350.66,844.12 346.95,841.13 345.01,840.12 C343.08,839.12 341.49,837.60 341.49,836.75 C341.48,835.91 339.45,833.02 336.99,830.35 C334.52,827.67 331.00,823.74 329.17,821.62 C326.92,819.00 325.52,818.08 324.83,818.77 C323.64,819.96 330.46,828.08 332.34,827.72 C332.98,827.60 333.50,828.28 333.51,829.24 C333.52,830.20 338.20,835.68 343.92,841.42 ZM 566.00 816.05 C564.62,815.61 561.47,814.67 559.00,813.96 C556.53,813.25 549.86,811.11 544.19,809.20 C536.18,806.49 533.62,805.98 532.69,806.92 C531.77,807.85 531.89,807.97 533.25,807.45 C534.21,807.09 535.00,807.24 535.00,807.80 C535.00,808.97 540.85,811.21 542.03,810.48 C542.47,810.21 542.99,810.46 543.18,811.04 C543.37,811.61 544.87,812.26 546.51,812.47 C548.16,812.69 549.72,812.95 550.00,813.05 C550.28,813.15 550.82,813.19 551.22,813.13 C551.61,813.07 553.18,813.54 554.72,814.17 C556.25,814.80 558.03,815.24 558.67,815.13 C559.32,815.03 560.07,815.30 560.33,815.72 C560.60,816.15 562.55,816.58 564.66,816.68 C567.88,816.83 568.10,816.73 566.00,816.05 ZM 479.40 209.75 C480.80,207.96 481.51,206.35 480.97,206.16 C480.43,205.98 480.31,205.31 480.71,204.66 C481.10,204.02 480.05,204.62 478.37,206.00 C476.68,207.38 475.72,208.66 476.21,208.85 C476.71,209.05 476.35,210.06 475.41,211.10 C473.89,212.78 473.88,213.00 475.27,213.00 C476.14,213.00 478.00,211.54 479.40,209.75 ZM 239.00 532.51 C239.00,537.24 241.82,532.85 242.61,526.89 C243.28,521.81 243.23,521.63 241.58,523.28 C240.30,524.56 240.02,525.83 240.53,528.13 C241.00,530.30 240.88,531.04 240.11,530.57 C239.40,530.13 239.00,530.84 239.00,532.51 ZM 238.25 615.26 C239.75,615.77 240.60,611.99 239.19,611.11 C238.65,610.78 237.99,609.38 237.74,608.00 C237.46,606.51 237.22,607.38 237.14,610.17 C237.05,613.11 237.46,614.99 238.25,615.26 ZM 238.00 540.69 C238.00,542.87 238.17,542.98 239.50,541.64 C240.32,540.82 241.00,539.16 241.00,537.95 C241.00,536.11 240.76,535.96 239.50,537.00 C238.68,537.68 238.00,539.35 238.00,540.69 ZM 372.91 730.22 C374.16,731.29 375.00,731.83 375.00,731.51 C375.00,731.01 376.56,732.12 378.46,733.96 C380.36,735.81 381.65,737.77 381.31,738.31 C381.24,738.42 381.19,738.52 381.16,738.60 C378.37,735.85 375.62,733.05 372.91,730.22 ZM 237.12 551.68 C237.19,553.37 237.42,553.80 237.69,552.75 C237.94,551.79 238.56,551.00 239.07,551.00 C239.58,551.00 240.00,549.84 240.00,548.43 C240.00,546.14 239.83,546.02 238.50,547.36 C237.68,548.18 237.05,550.13 237.12,551.68 ZM 418.87 771.11 C421.69,773.12 424.08,774.59 424.39,774.28 C424.73,773.94 425.00,774.14 425.00,774.72 C425.00,775.98 440.75,786.61 442.08,786.25 C442.59,786.11 443.00,786.48 443.00,787.06 C443.00,787.64 443.42,787.86 443.94,787.54 C444.45,787.22 445.34,787.75 445.91,788.73 C446.12,789.10 446.32,789.39 446.49,789.59 C445.99,789.30 445.50,789.00 445.00,788.71 C436.27,783.49 427.51,777.59 418.87,771.11 ZM 381.41 738.83 C381.49,738.80 381.59,738.75 381.71,738.68 C382.27,738.33 383.54,738.94 384.52,740.02 C385.51,741.11 385.93,742.00 385.46,742.00 C385.12,742.00 385.20,742.33 385.58,742.87 C384.18,741.53 382.79,740.19 381.41,738.83 ZM 499.56 816.50 C507.12,819.48 516.49,822.81 517.06,822.46 C517.58,822.14 518.00,822.29 518.00,822.80 C518.00,823.18 521.47,824.50 526.50,826.16 C518.60,823.66 510.88,820.98 504.23,818.38 C502.71,817.78 501.15,817.16 499.56,816.50 ZM 277.47 541.20 C279.81,553.69 283.35,569.49 286.02,578.94 C288.04,586.09 290.64,594.22 293.01,601.03 C286.23,581.88 281.09,562.05 277.47,541.20 ZM 686.77 917.25 C686.72,917.35 686.67,917.46 686.63,917.56 C687.97,914.42 689.18,910.82 690.35,906.58 C689.67,909.26 689.31,911.69 689.55,912.08 C689.81,912.49 689.67,912.98 689.26,913.16 C688.84,913.35 687.72,915.19 686.77,917.25 ZM 679.02 119.66 C678.71,119.35 678.42,119.04 678.17,118.75 C677.41,117.86 676.59,117.07 675.93,116.57 C676.55,116.64 677.07,116.39 677.36,115.69 C677.62,115.04 677.88,115.29 677.92,116.26 C677.96,117.13 678.44,118.57 679.02,119.66 ZM 365.75 683.55 C363.50,680.68 361.22,677.99 360.25,677.25 C359.35,676.56 358.96,676.00 359.38,676.00 C359.66,676.00 359.48,675.39 358.97,674.49 L 364.00 681.19 C364.60,681.99 365.19,682.78 365.75,683.55 ZM 651.67 943.37 C651.52,943.44 651.36,943.53 651.20,943.63 C650.27,944.20 647.89,944.48 645.92,944.25 C645.56,944.21 645.24,944.17 644.95,944.15 C646.31,943.94 647.97,943.74 649.72,943.58 C650.39,943.52 651.04,943.45 651.67,943.37 ZM 406.51 761.41 C406.76,761.51 406.97,761.52 407.10,761.44 C407.60,761.13 408.27,761.55 408.59,762.38 C408.83,763.00 410.43,764.51 412.53,766.25 C410.52,764.67 408.51,763.05 406.51,761.41 ZM 375.00 730.62 C375.00,731.45 374.18,730.92 372.87,729.25 C371.63,727.66 371.66,727.63 373.25,728.87 C374.21,729.63 375.00,730.41 375.00,730.62 ZM 373.00 865.62 C373.00,866.45 372.18,865.92 370.87,864.25 C369.63,862.66 369.66,862.63 371.25,863.87 C372.21,864.63 373.00,865.41 373.00,865.62 ZM 306.30 633.30 C308.96,638.86 311.67,644.00 312.21,644.00 C312.71,644.00 312.84,644.45 312.50,645.00 C312.38,645.19 312.33,645.37 312.34,645.53 C310.24,641.47 308.23,637.40 306.30,633.30 ZM 271.50 430.26 C269.07,435.40 266.05,442.37 263.49,448.96 C262.55,451.37 261.65,453.75 260.78,456.11 C264.33,446.17 268.03,437.15 271.50,430.26 ZM 335.90 684.93 C336.62,685.71 337.25,686.27 337.65,686.42 C338.46,686.73 338.84,687.44 338.50,688.00 C338.40,688.16 338.37,688.32 338.38,688.49 C337.55,687.31 336.72,686.12 335.90,684.93 ZM 299.51 617.96 C299.57,617.99 299.65,618.00 299.73,618.00 C300.19,618.00 300.64,618.84 300.72,619.88 C300.78,620.69 301.75,623.20 303.10,626.32 C301.87,623.55 300.67,620.76 299.51,617.96 ZM 557.82 141.00 C557.85,141.00 557.88,141.00 557.91,140.99 C556.13,142.51 554.24,144.10 552.30,145.72 C552.50,145.52 552.71,145.30 552.92,145.08 C555.08,142.84 557.28,141.00 557.82,141.00 ZM 312.52 645.86 C312.63,645.95 312.79,646.00 313.00,646.00 C313.61,646.00 313.89,646.37 313.61,646.82 C313.42,647.13 314.50,649.49 316.13,652.64 C314.90,650.39 313.69,648.13 312.52,645.86 ZM 347.50 700.80 C347.74,701.04 348.02,701.28 348.32,701.49 C349.32,702.22 350.09,703.09 350.04,703.43 C350.00,703.65 350.57,704.59 351.45,705.81 C350.11,704.15 348.80,702.48 347.50,700.80 ZM 296.99 611.70 C298.01,614.17 298.78,615.70 299.13,615.84 C299.62,616.02 299.76,616.58 299.45,617.09 C299.37,617.21 299.32,617.33 299.30,617.44 C298.51,615.53 297.74,613.62 296.99,611.70 ZM 565.97 134.00 C564.67,135.15 563.16,136.48 561.50,137.91 C561.62,137.78 561.74,137.64 561.87,137.50 C563.56,135.57 565.39,134.00 565.93,134.00 C565.95,134.00 565.96,134.00 565.97,134.00 ZM 343.16 695.09 L 343.21 695.15 C344.98,696.99 346.44,698.87 346.46,699.33 C346.46,699.39 346.48,699.45 346.50,699.51 C345.37,698.05 344.26,696.57 343.16,695.09 ZM 339.03 689.41 C339.15,689.49 339.28,689.56 339.43,689.61 C340.29,689.94 340.77,690.57 340.50,691.00 C340.44,691.10 340.45,691.28 340.54,691.51 C340.03,690.81 339.53,690.11 339.03,689.41 ZM 326.17 669.91 C326.78,670.79 327.25,671.39 327.53,671.60 C328.25,672.15 328.58,672.91 328.33,673.38 C327.60,672.22 326.88,671.07 326.17,669.91 ZM 615.50 90.68 C615.16,90.98 614.86,91.26 614.59,91.50 C611.98,93.90 609.80,95.88 607.99,97.47 C608.06,97.40 608.13,97.32 608.20,97.25 C609.11,96.29 611.96,93.70 614.54,91.50 C614.86,91.22 615.19,90.94 615.50,90.68 ZM 455.00 794.11 C455.00,794.28 455.02,794.42 455.05,794.53 C454.54,794.24 454.02,793.95 453.51,793.66 C453.65,793.66 453.82,793.61 454.00,793.50 C454.55,793.16 455.00,793.43 455.00,794.11 ZM 415.52 737.04 C415.43,737.01 415.34,737.00 415.26,737.00 C414.57,737.00 414.00,736.55 414.00,736.00 C414.00,735.76 413.91,735.54 413.77,735.37 C414.39,735.96 414.98,736.52 415.52,737.04 ZM 400.75 756.58 L 400.75 756.58 C401.01,756.32 402.34,757.44 403.70,759.06 C403.73,759.09 403.75,759.12 403.78,759.15 C402.77,758.30 401.76,757.45 400.75,756.58 ZM 487.07 811.00 C487.42,811.11 487.74,811.18 488.00,811.23 C488.83,811.38 489.74,811.82 490.03,812.21 C490.11,812.30 490.31,812.45 490.63,812.63 C489.45,812.10 488.27,811.55 487.07,811.00 ZM 451.58 792.56 C451.76,792.57 451.92,792.55 452.04,792.48 C452.57,792.15 453.00,792.39 453.00,793.00 C453.00,793.18 453.04,793.32 453.10,793.43 C452.59,793.14 452.09,792.85 451.58,792.56 ZM 446.95 789.86 C446.96,789.83 446.97,789.80 446.97,789.75 C446.99,789.34 447.92,789.92 449.04,791.04 C449.08,791.08 449.12,791.12 449.16,791.16 C448.42,790.73 447.68,790.29 446.95,789.86 ZM 475.84 805.58 C475.89,805.56 475.95,805.53 476.00,805.50 C476.55,805.16 477.00,805.28 477.00,805.77 C477.00,805.93 477.26,806.19 477.70,806.51 C477.08,806.20 476.46,805.89 475.84,805.58 ZM 473.85 804.58 C473.90,804.56 473.95,804.53 474.00,804.50 C474.55,804.16 475.00,804.39 475.00,805.00 C475.00,805.06 475.00,805.12 475.01,805.17 C474.62,804.97 474.24,804.78 473.85,804.58 ZM 465.51 800.25 C465.63,800.28 465.76,800.28 465.88,800.25 C466.49,800.11 466.99,800.47 467.00,801.04 C466.50,800.78 466.01,800.52 465.51,800.25 ZM 471.87 803.57 C471.91,803.55 471.96,803.53 472.00,803.50 C472.55,803.16 473.00,803.39 473.00,804.00 C473.00,804.06 473.00,804.11 473.01,804.16 C472.63,803.96 472.25,803.77 471.87,803.57 ZM 504.50 187.82 C505.36,187.04 506.42,186.11 507.42,185.26 C505.37,187.21 503.45,188.90 501.73,190.28 C502.51,189.61 503.43,188.79 504.50,187.82 ZM 469.90 802.56 C469.93,802.54 469.97,802.52 470.00,802.50 C470.55,802.16 471.00,802.39 471.00,803.00 C471.00,803.05 471.00,803.09 471.01,803.13 C470.64,802.94 470.27,802.75 469.90,802.56 ZM 467.94 801.54 C467.96,801.52 467.98,801.51 468.00,801.50 C468.55,801.16 469.00,801.39 469.00,802.00 C469.00,802.03 469.00,802.06 469.00,802.09 C468.65,801.91 468.29,801.72 467.94,801.54 ZM 275.95 422.77 C275.95,422.72 275.95,422.68 275.95,422.65 C275.93,422.27 275.70,422.41 275.29,423.00 L 276.08 421.50 ZM 549.47 363.45 C548.54,363.33 548.04,363.18 548.00,363.02 C548.38,363.19 548.86,363.33 549.47,363.45 ZM 274.41 436.39 C274.73,433.82 275.03,431.38 275.27,429.28 C275.00,431.73 274.67,434.49 274.41,436.39 Z" fill="rgb(24,24,24)"/>
<path d="M 587.06 525.44 C586.88,438.43 586.40,365.74 585.64,365.11 C584.65,364.30 567.54,364.06 523.43,364.24 L 462.59 364.50 L 462.04 366.80 C461.75,368.07 461.73,395.52 462.00,427.80 L 462.50 486.50 L 477.00 486.70 C478.90,486.73 480.77,486.77 482.52,486.82 C480.11,486.84 477.56,486.90 475.11,487.01 C464.06,487.08 461.00,486.81 460.98,485.81 C460.97,484.85 460.71,484.90 460.00,486.00 C459.37,486.98 459.03,466.14 459.02,426.18 C459.00,374.35 459.22,364.64 460.43,363.43 C461.62,362.23 468.93,362.00 504.93,362.00 C530.55,362.00 545.30,362.29 547.66,362.84 C547.77,362.90 547.88,362.96 548.00,363.02 C548.04,363.18 548.54,363.33 549.47,363.45 C551.24,363.80 554.12,363.94 558.75,363.96 C559.23,363.96 559.70,363.96 560.15,363.96 C562.02,363.99 564.07,364.00 566.30,364.00 C579.20,364.00 584.95,364.35 585.80,365.20 C586.50,365.90 586.92,438.51 587.06,525.44 ZM 241.48 626.25 C242.56,634.72 243.95,643.21 245.63,651.66 L 245.63 651.66 C247.56,661.42 249.89,671.09 252.61,680.63 C257.49,697.85 263.55,714.61 270.65,730.33 C272.59,734.63 273.92,738.41 273.61,738.73 C273.29,739.04 273.63,739.80 274.37,740.40 C276.10,741.83 287.28,763.01 286.27,762.96 C285.85,762.94 284.99,762.34 284.36,761.62 C283.73,760.90 282.48,758.89 281.58,757.16 C280.68,755.42 279.48,754.00 278.92,754.00 C278.35,754.00 278.16,753.55 278.50,753.00 C278.84,752.45 278.61,752.00 278.00,752.00 C277.39,752.00 277.14,751.59 277.45,751.08 C277.76,750.57 277.42,749.56 276.69,748.83 C275.96,748.10 275.39,747.27 275.43,746.99 C275.64,745.52 271.51,737.19 270.79,737.63 C270.33,737.91 270.01,737.78 270.09,737.32 C270.52,734.86 269.88,732.95 268.85,733.60 C268.17,734.01 267.96,733.87 268.34,733.26 C269.22,731.84 266.59,725.76 265.52,726.73 C265.06,727.16 264.98,726.97 265.35,726.32 C266.13,724.96 264.11,720.00 262.78,720.00 C262.29,720.00 262.14,719.58 262.46,719.07 C262.77,718.56 262.59,717.87 262.06,717.54 C261.53,717.21 261.37,716.20 261.71,715.30 C262.17,714.13 261.97,713.90 261.02,714.49 C260.22,714.98 259.93,714.92 260.29,714.34 C260.76,713.57 254.31,693.17 251.32,686.00 C250.34,683.64 250.11,682.80 249.09,677.94 C248.56,675.44 247.67,672.29 247.10,670.94 C245.59,667.33 241.87,648.03 242.49,647.01 C242.79,646.53 242.64,645.90 242.17,645.60 C241.00,644.88 238.57,627.56 239.35,625.52 C239.72,624.57 239.56,624.15 238.99,624.51 C238.40,624.87 238.05,623.59 238.12,621.31 C238.18,619.21 238.44,618.29 238.69,619.25 C238.94,620.21 239.52,621.00 239.98,621.00 C240.44,621.00 241.11,623.36 241.48,626.25 ZM 271.50 430.26 C268.03,437.15 264.33,446.17 260.78,456.11 C255.08,471.58 250.71,486.39 247.32,502.16 C246.41,506.19 245.62,510.07 244.97,513.75 C244.12,518.50 243.22,521.00 242.34,521.00 C241.60,521.00 241.00,520.40 241.00,519.67 C241.00,518.93 241.28,518.06 241.62,517.72 C241.95,517.38 242.37,515.28 242.53,513.05 C242.95,507.51 247.00,490.00 247.87,490.00 C248.26,490.00 248.64,489.21 248.71,488.25 C249.03,484.35 250.01,480.85 254.84,466.56 C257.61,458.34 259.66,451.25 259.38,450.81 C259.11,450.36 259.31,450.00 259.84,450.00 C261.03,450.00 263.18,444.10 262.43,442.89 C262.13,442.40 262.39,442.00 263.00,442.00 C263.61,442.00 263.84,441.55 263.50,441.00 C263.16,440.45 263.41,440.00 264.05,440.00 C264.69,440.00 264.95,439.30 264.62,438.45 C264.29,437.59 264.41,437.14 264.89,437.43 C265.93,438.07 270.21,428.15 269.43,426.89 C269.13,426.40 269.39,426.00 270.00,426.00 C270.61,426.00 270.84,425.55 270.50,425.00 C270.16,424.45 270.43,424.00 271.11,424.00 C271.78,424.00 272.05,423.72 271.71,423.38 C271.37,423.04 271.75,422.10 272.56,421.30 C273.36,420.50 273.79,419.48 273.52,419.03 C272.72,417.73 275.60,415.91 277.37,416.59 C279.32,417.34 279.33,417.75 277.80,429.39 C277.13,434.49 275.96,439.15 275.15,439.97 C274.29,440.84 273.97,440.94 274.02,439.68 C274.12,438.80 274.21,437.95 274.31,437.15 C274.35,436.90 274.38,436.64 274.41,436.39 C274.67,434.49 275.00,431.73 275.27,429.28 C275.67,425.89 275.93,423.41 275.95,422.77 L 276.08 421.50 L 275.29 423.00 C274.52,424.10 273.15,426.75 271.50,430.26 ZM 277.47 541.20 C276.60,536.23 275.83,531.21 275.14,526.13 C275.14,525.11 275.53,525.39 276.49,526.34 C277.40,527.25 278.01,529.01 277.85,530.25 C277.69,531.49 277.93,533.09 278.38,533.81 C278.82,534.53 278.91,536.21 278.58,537.56 C278.24,538.90 278.31,540.00 278.73,540.00 C279.16,540.00 280.35,544.61 281.37,550.25 C284.66,568.31 286.36,574.72 294.09,598.23 C297.20,607.68 299.67,613.70 300.29,613.32 C300.85,612.98 301.02,613.16 300.66,613.73 C299.88,615.01 303.89,625.00 305.19,625.00 C305.70,625.00 305.84,625.45 305.50,626.00 C305.16,626.55 305.34,627.00 305.91,627.00 C306.47,627.00 306.71,627.59 306.43,628.31 C306.16,629.03 307.03,631.24 308.38,633.23 C309.73,635.21 310.57,637.10 310.25,637.42 C309.93,637.74 310.19,638.00 310.83,638.00 C311.48,638.00 311.89,638.38 311.75,638.84 C311.28,640.42 318.34,653.91 319.33,653.30 C319.87,652.96 319.99,653.20 319.60,653.85 C319.20,654.48 319.39,655.00 320.00,655.00 C320.61,655.00 320.85,655.43 320.52,655.96 C320.20,656.49 320.84,657.84 321.96,658.96 C323.08,660.08 323.78,661.00 323.51,661.00 C323.24,661.00 323.69,661.79 324.52,662.75 C325.34,663.71 325.91,664.72 325.77,665.00 C325.64,665.28 326.55,667.15 327.80,669.17 C329.54,672.00 329.77,673.01 328.78,673.58 C328.69,673.63 328.61,673.68 328.54,673.71 C328.47,673.60 328.40,673.49 328.33,673.38 C328.58,672.91 328.25,672.15 327.53,671.60 C327.25,671.39 326.78,670.79 326.17,669.91 C322.64,664.19 319.30,658.43 316.13,652.64 C314.50,649.49 313.42,647.13 313.61,646.82 C313.89,646.37 313.61,646.00 313.00,646.00 C312.79,646.00 312.63,645.95 312.52,645.86 L 312.34 645.53 C312.33,645.37 312.38,645.19 312.50,645.00 C312.84,644.45 312.71,644.00 312.21,644.00 C311.67,644.00 308.96,638.86 306.30,633.30 C305.20,630.98 304.14,628.65 303.10,626.32 L 303.10 626.32 C301.75,623.20 300.78,620.69 300.72,619.88 C300.64,618.84 300.19,618.00 299.73,618.00 C299.65,618.00 299.57,617.99 299.51,617.96 C299.44,617.79 299.37,617.61 299.30,617.44 C299.32,617.33 299.37,617.21 299.45,617.09 C299.76,616.58 299.62,616.02 299.13,615.84 C298.78,615.70 298.01,614.17 296.99,611.70 C295.61,608.16 294.28,604.61 293.01,601.03 C290.64,594.22 288.04,586.09 286.02,578.94 C283.35,569.49 279.81,553.69 277.47,541.20 ZM 499.56 816.50 C496.68,815.30 493.69,814.01 490.63,812.63 C490.31,812.45 490.11,812.30 490.03,812.21 C489.74,811.82 488.83,811.38 488.00,811.23 C487.74,811.18 487.42,811.11 487.07,811.00 C484.00,809.58 480.87,808.07 477.70,806.51 C477.26,806.19 477.00,805.93 477.00,805.77 C477.00,805.28 476.55,805.16 476.00,805.50 C475.95,805.53 475.89,805.56 475.84,805.58 C475.57,805.45 475.29,805.31 475.01,805.17 C475.00,805.12 475.00,805.06 475.00,805.00 C475.00,804.39 474.55,804.16 474.00,804.50 C473.95,804.53 473.90,804.56 473.85,804.58 C473.57,804.44 473.29,804.30 473.01,804.16 C473.00,804.11 473.00,804.06 473.00,804.00 C473.00,803.39 472.55,803.16 472.00,803.50 C471.96,803.53 471.91,803.55 471.87,803.57 C471.58,803.43 471.29,803.28 471.01,803.13 C471.00,803.09 471.00,803.05 471.00,803.00 C471.00,802.39 470.55,802.16 470.00,802.50 C469.97,802.52 469.93,802.54 469.90,802.56 C469.00,802.06 469.00,802.03 469.00,802.00 C469.00,801.39 468.55,801.16 468.00,801.50 C467.98,801.51 467.96,801.52 467.94,801.54 C467.63,801.37 467.31,801.21 467.00,801.04 C466.99,800.47 466.49,800.11 465.88,800.25 C465.76,800.28 465.63,800.28 465.51,800.25 C465.29,800.14 465.07,800.02 464.85,799.91 C464.61,799.68 464.41,799.37 464.30,799.00 C463.90,797.67 463.97,797.67 464.91,799.00 C465.49,799.83 465.98,800.16 465.98,799.74 C465.99,799.32 470.07,801.02 475.04,803.52 C480.02,806.02 484.59,807.76 485.20,807.38 C485.92,806.93 486.02,807.15 485.49,808.02 C484.88,809.01 485.14,809.16 486.56,808.62 C487.59,808.22 488.11,808.23 487.70,808.63 C486.79,809.54 492.86,812.20 494.10,811.44 C494.60,811.13 495.00,811.31 495.00,811.83 C495.00,812.67 499.25,814.51 516.50,821.11 C519.25,822.17 523.26,823.25 525.42,823.53 C527.57,823.80 529.82,824.43 530.42,824.92 C531.01,825.41 535.33,826.84 540.00,828.10 C544.67,829.36 548.72,830.64 549.00,830.95 C549.28,831.25 551.04,831.59 552.91,831.71 C554.79,831.82 557.04,832.23 557.91,832.61 C558.79,833.00 560.07,833.22 560.76,833.11 C561.46,833.00 563.02,833.60 564.24,834.45 L 566.45 836.00 L 563.97 835.93 C563.39,835.91 562.20,835.74 560.68,835.46 C550.95,833.35 538.52,829.96 526.50,826.16 C521.47,824.50 518.00,823.18 518.00,822.80 C518.00,822.29 517.58,822.14 517.06,822.46 C516.49,822.81 507.12,819.48 499.56,816.50 ZM 484.20 214.83 C488.67,214.87 495.64,214.72 505.90,214.39 C533.17,213.51 557.43,213.65 565.24,214.63 C565.20,214.68 565.17,214.73 565.13,214.79 C564.24,216.22 510.31,217.31 509.44,215.91 C509.13,215.41 501.96,215.00 493.50,215.00 C489.93,215.00 486.76,214.94 484.20,214.83 ZM 309.42 798.04 C309.88,798.06 310.60,798.63 311.41,799.49 C312.40,800.82 313.39,802.14 314.40,803.45 C315.77,805.60 316.72,807.68 316.24,808.16 C315.61,808.79 314.13,807.69 312.07,805.08 C310.16,802.68 309.16,800.52 309.59,799.77 C309.99,799.07 309.99,798.80 309.58,799.16 C308.66,799.99 303.15,793.84 300.02,788.50 C293.94,778.11 288.57,770.00 287.77,770.00 C287.28,770.00 287.16,769.55 287.50,769.00 C287.84,768.45 287.74,768.00 287.27,768.00 C286.81,768.00 286.36,767.10 286.27,766.00 C286.19,764.90 286.51,764.00 286.98,764.00 C288.33,764.00 292.21,770.85 291.51,771.98 C291.17,772.54 291.55,773.00 292.37,773.00 C293.75,773.00 295.65,776.53 295.20,778.25 C295.09,778.66 295.42,779.00 295.93,779.00 C297.10,779.00 308.29,795.04 308.31,796.75 C308.32,797.44 308.82,798.02 309.42,798.04 ZM 418.87 771.11 C416.75,769.53 414.64,767.91 412.53,766.25 C410.43,764.51 408.83,763.00 408.59,762.38 C408.27,761.55 407.60,761.13 407.10,761.44 C406.97,761.52 406.76,761.51 406.51,761.41 C405.60,760.66 404.69,759.91 403.78,759.15 C403.75,759.12 403.73,759.09 403.70,759.06 C402.34,757.44 401.01,756.32 400.75,756.58 L 400.75 756.58 C399.91,755.86 399.06,755.13 398.22,754.40 C397.73,753.71 398.03,753.91 399.25,754.87 C400.58,755.91 401.00,755.94 401.00,755.00 C401.00,754.02 401.32,754.02 402.52,755.02 C403.36,755.72 403.82,756.52 403.53,756.80 C402.75,757.58 405.10,760.05 406.06,759.46 C407.03,758.86 423.33,771.21 425.33,774.06 C426.07,775.12 426.88,775.78 427.13,775.53 C427.38,775.28 428.73,775.85 430.13,776.79 C431.53,777.73 435.51,780.40 438.96,782.73 C442.42,785.06 445.71,786.68 446.28,786.33 C446.87,785.96 447.01,786.18 446.60,786.85 C445.96,787.88 447.15,788.45 449.25,788.12 C449.66,788.05 450.00,788.53 450.00,789.17 C450.00,789.81 450.25,790.08 450.56,789.77 C450.87,789.46 452.29,790.29 453.72,791.61 C455.15,792.94 456.02,794.32 455.66,794.68 C455.61,794.73 455.56,794.76 455.51,794.79 L 455.05 794.53 C455.02,794.42 455.00,794.28 455.00,794.11 C455.00,793.43 454.55,793.16 454.00,793.50 C453.82,793.61 453.65,793.66 453.51,793.66 L 453.10 793.43 C453.04,793.32 453.00,793.18 453.00,793.00 C453.00,792.39 452.57,792.15 452.04,792.48 C451.92,792.55 451.76,792.57 451.58,792.56 C450.77,792.09 449.97,791.63 449.16,791.16 C449.12,791.12 449.08,791.08 449.04,791.04 C447.92,789.92 446.99,789.34 446.97,789.75 C446.97,789.80 446.96,789.83 446.95,789.86 L 446.49 789.59 C446.32,789.39 446.12,789.10 445.91,788.73 C445.34,787.75 444.45,787.22 443.94,787.54 C443.42,787.86 443.00,787.64 443.00,787.06 C443.00,786.48 442.59,786.11 442.08,786.25 C440.75,786.61 425.00,775.98 425.00,774.72 C425.00,774.14 424.73,773.94 424.39,774.28 C424.08,774.59 421.69,773.12 418.87,771.11 ZM 343.92 841.42 C338.20,835.68 333.52,830.20 333.51,829.24 C333.50,828.28 332.98,827.60 332.34,827.72 C330.46,828.08 323.64,819.96 324.83,818.77 C325.52,818.08 326.92,819.00 329.17,821.62 C331.00,823.74 334.52,827.67 336.99,830.35 C339.45,833.02 341.48,835.91 341.49,836.75 C341.49,837.60 343.08,839.12 345.01,840.12 C346.95,841.13 350.66,844.12 353.27,846.76 C356.98,850.54 357.61,851.60 356.16,851.71 C355.04,851.80 350.23,847.75 343.92,841.42 ZM 238.16 560.01 C238.29,559.62 238.41,564.08 238.47,570.90 C238.20,577.27 238.22,583.96 238.52,591.28 C238.53,598.22 238.52,602.96 238.52,602.96 C238.51,602.94 237.94,602.29 237.25,601.50 C235.74,599.79 235.41,559.52 236.91,560.45 C237.42,560.76 237.98,560.56 238.16,560.01 ZM 589.17 947.42 C588.61,946.79 588.72,946.42 590.62,946.23 C593.66,946.10 597.78,946.06 603.15,946.10 C603.84,946.11 604.57,946.11 605.32,946.12 C619.42,946.29 622.71,946.59 622.30,947.67 C621.50,949.73 591.01,949.50 589.17,947.42 ZM 569.27 343.00 L 598.63 343.00 L 601.25 345.75 C601.43,345.94 601.62,346.15 601.81,346.37 C600.44,344.94 598.95,344.00 597.77,344.00 C596.73,344.00 596.16,344.45 596.50,345.00 C596.90,345.65 591.93,345.99 582.31,345.98 C572.38,345.97 567.99,345.65 569.00,345.00 C569.83,344.47 570.05,344.02 569.50,344.02 C569.42,344.01 569.34,343.67 569.27,343.00 ZM 335.90 684.93 C334.84,683.38 333.80,681.82 332.77,680.27 C332.33,679.60 331.90,678.94 331.46,678.27 C330.19,675.64 329.88,673.81 331.12,674.57 C331.68,674.92 331.93,675.40 331.69,675.65 C331.44,675.89 332.06,677.09 333.08,678.30 C338.70,685.03 344.95,694.27 344.44,695.10 C344.12,695.62 344.25,695.93 344.73,695.77 C345.82,695.43 352.16,702.52 351.78,703.66 C351.63,704.12 351.95,704.64 352.50,704.82 C354.64,705.51 356.85,708.28 356.72,710.09 C356.65,710.97 356.56,711.72 356.49,711.94 C354.78,709.91 353.10,707.86 351.45,705.81 C350.57,704.59 350.00,703.65 350.04,703.43 C350.09,703.09 349.32,702.22 348.32,701.49 C348.02,701.28 347.74,701.04 347.50,700.80 C347.16,700.37 346.83,699.94 346.50,699.51 C346.48,699.45 346.46,699.39 346.46,699.33 C346.44,698.87 344.98,696.99 343.21,695.15 L 343.16 695.09 C342.28,693.90 341.40,692.71 340.54,691.51 C340.45,691.28 340.44,691.10 340.50,691.00 C340.77,690.57 340.29,689.94 339.43,689.61 C339.28,689.56 339.15,689.49 339.03,689.41 C338.37,688.32 338.40,688.16 338.50,688.00 C338.84,687.44 338.46,686.73 337.65,686.42 C337.25,686.27 336.62,685.71 335.90,684.93 ZM 495.18 929.50 C499.80,931.00 504.17,932.37 507.50,933.37 C510.87,934.48 513.41,935.35 514.59,935.80 C514.57,935.87 514.54,935.93 514.50,936.00 C513.72,937.27 512.29,937.29 511.53,936.04 C511.20,935.52 510.32,935.32 509.57,935.61 C508.82,935.90 507.92,935.68 507.57,935.11 C507.22,934.55 506.28,934.34 505.47,934.65 C504.66,934.96 504.00,934.69 504.00,934.05 C504.00,933.41 503.59,933.13 503.09,933.44 C501.90,934.18 477.00,926.00 477.00,924.87 L 477.00 924.85 C477.00,924.64 477.00,924.47 477.08,924.35 C477.49,923.75 479.96,924.55 494.86,929.40 L 494.86 929.40 ZM 667.85 849.38 C667.73,849.47 666.55,849.11 664.86,848.49 C664.24,848.20 663.62,847.93 663.00,847.68 C659.79,846.43 657.49,845.63 653.89,845.04 C651.89,844.66 649.81,844.39 647.79,844.25 C643.51,843.95 640.00,843.36 640.00,842.92 C640.00,842.48 638.54,841.95 636.75,841.72 C634.96,841.50 636.65,841.25 640.50,841.17 C649.17,840.99 655.18,841.90 654.33,843.28 C653.98,843.85 654.18,844.01 654.77,843.64 C656.75,842.42 669.67,848.09 667.85,849.38 ZM 372.91 730.22 C370.74,727.95 368.59,725.66 366.48,723.34 C366.46,723.27 366.46,723.21 366.49,723.18 C366.73,722.94 366.44,721.78 365.84,720.62 C364.99,718.97 365.44,719.16 367.87,721.44 C369.59,723.05 371.00,725.22 371.00,726.25 C371.00,727.28 371.38,727.88 371.85,727.59 C372.32,727.30 376.36,730.81 380.83,735.39 C385.30,739.96 389.19,743.48 389.48,743.19 C389.77,742.90 390.00,743.62 390.00,744.77 C390.00,745.93 390.53,747.21 391.17,747.61 C391.99,748.11 392.12,747.75 391.61,746.41 C391.13,745.16 392.10,745.68 394.44,747.95 C396.40,749.84 398.00,751.53 398.00,751.70 C398.00,751.71 398.00,751.72 398.00,751.73 C398.00,751.80 398.00,751.85 397.98,751.88 C397.87,752.00 397.36,751.78 394.84,750.66 L 394.50 750.50 C393.92,750.25 393.18,749.78 392.36,749.18 C390.08,747.11 387.82,745.00 385.58,742.87 C385.20,742.33 385.12,742.00 385.46,742.00 C385.93,742.00 385.51,741.11 384.52,740.02 C383.54,738.94 382.27,738.33 381.71,738.68 C381.59,738.75 381.49,738.80 381.41,738.83 L 381.16 738.60 C381.19,738.52 381.24,738.42 381.31,738.31 C381.65,737.77 380.36,735.81 378.46,733.96 C376.56,732.12 375.00,731.01 375.00,731.51 C375.00,731.83 374.16,731.29 372.91,730.22 ZM 373.58 864.76 C374.03,865.11 374.66,865.59 375.40,866.16 C376.88,867.33 378.73,868.74 382.11,871.31 L 382.21 871.38 C387.22,875.22 388.40,877.00 385.93,877.00 C385.53,877.00 382.57,875.01 379.35,872.59 C371.92,866.98 364.88,860.61 367.50,861.85 C368.60,862.38 369.76,862.73 370.08,862.65 C370.39,862.57 371.97,863.52 373.58,864.76 ZM 686.77 917.25 C687.72,915.19 688.84,913.35 689.26,913.16 C689.67,912.98 689.81,912.49 689.55,912.08 C689.31,911.69 689.67,909.26 690.35,906.58 C690.79,904.98 691.23,903.29 691.66,901.50 C691.78,901.02 691.88,900.47 691.96,899.88 C692.11,899.80 692.27,899.72 692.46,899.65 C693.51,899.25 694.00,899.66 694.00,900.95 C694.00,901.98 693.53,902.99 692.95,903.18 C692.06,903.48 691.20,907.69 690.70,914.18 C690.63,915.10 690.27,915.66 689.89,915.43 C688.90,914.82 687.87,917.99 688.65,919.24 C689.04,919.87 688.83,920.02 688.15,919.60 C687.52,919.20 687.00,919.36 687.00,919.94 C687.00,920.52 686.56,921.00 686.02,921.00 C685.53,921.00 685.76,919.62 686.51,917.83 C686.55,917.74 686.59,917.65 686.63,917.56 L 686.63 917.55 C686.67,917.45 686.72,917.35 686.77,917.25 ZM 691.36 881.03 C691.00,881.39 690.22,880.19 689.41,878.15 C689.14,877.37 688.85,876.54 688.56,875.71 C687.58,872.57 686.82,869.83 686.87,869.56 C686.91,869.28 685.84,867.86 684.49,866.40 C681.43,863.09 682.40,860.93 685.50,864.15 C686.75,865.44 687.77,866.72 687.76,867.00 C687.76,869.66 688.13,871.04 688.75,870.65 C689.16,870.40 689.57,871.16 689.65,872.35 C689.85,875.23 690.38,877.22 691.39,878.84 C691.85,879.57 691.84,880.56 691.36,881.03 ZM 423.00 900.81 C418.76,898.40 416.34,895.50 418.81,896.14 C419.71,896.62 420.67,897.15 421.68,897.70 C421.65,897.76 421.61,897.82 421.58,897.88 C421.28,898.36 422.26,899.02 423.77,899.33 C425.27,899.65 427.97,901.18 429.76,902.74 C432.45,905.08 432.68,905.57 431.08,905.57 C430.02,905.57 429.41,905.14 429.74,904.62 C430.09,904.05 429.56,903.95 428.44,904.38 C427.41,904.78 426.88,904.78 427.28,904.39 C427.67,903.99 425.75,902.38 423.00,900.81 ZM 681.91 862.00 C681.69,862.00 680.06,860.53 678.03,858.53 C677.28,857.72 676.51,856.94 675.72,856.18 C673.53,853.81 672.32,851.92 672.84,851.60 C674.23,850.74 681.23,856.96 680.63,858.53 C680.37,859.20 680.66,860.26 681.28,860.88 C681.90,861.50 682.18,862.00 681.91,862.00 ZM 318.64 809.11 C318.87,809.31 319.10,809.52 319.33,809.73 C320.19,810.80 321.05,811.87 321.92,812.93 C322.97,814.59 323.52,816.16 323.11,816.82 C322.60,817.65 321.33,816.74 319.13,814.01 C315.95,810.06 315.60,806.60 318.64,809.11 ZM 594.57 839.42 C595.87,840.72 595.86,840.95 593.60,840.89 C591.03,840.58 588.81,840.26 587.00,839.92 C586.55,839.84 586.10,839.75 585.64,839.67 C585.25,839.41 585.00,839.10 585.00,838.82 C585.00,838.25 584.22,838.08 583.25,838.45 C581.90,838.97 581.77,838.85 582.68,837.93 C583.39,837.22 584.60,837.05 585.68,837.51 C586.68,837.94 588.74,838.19 590.25,838.07 C591.76,837.95 593.70,838.56 594.57,839.42 ZM 651.67 943.37 C652.23,943.30 652.78,943.23 653.31,943.15 C653.91,943.37 654.08,944.07 653.48,945.03 C653.09,945.67 651.47,946.00 649.88,945.77 C648.30,945.54 647.00,945.72 647.00,946.17 C647.00,946.63 645.95,947.00 644.67,947.00 C643.20,947.00 642.33,946.41 642.33,945.41 C642.33,945.07 642.39,944.81 642.53,944.61 C643.13,944.46 643.96,944.30 644.95,944.15 C645.24,944.17 645.56,944.21 645.92,944.25 C647.89,944.48 650.27,944.20 651.20,943.63 C651.36,943.53 651.52,943.44 651.67,943.37 ZM 239.00 532.51 C239.00,530.84 239.40,530.13 240.11,530.57 C240.88,531.04 241.00,530.30 240.53,528.13 C240.02,525.83 240.30,524.56 241.58,523.28 C243.23,521.63 243.28,521.81 242.61,526.89 C241.82,532.85 239.00,537.24 239.00,532.51 ZM 273.25 498.38 C273.10,497.89 272.96,497.33 272.82,496.75 C272.73,493.78 272.65,490.73 272.61,487.63 C272.83,487.72 273.13,487.99 273.55,488.41 C274.69,489.55 275.02,491.59 274.80,496.23 L 274.50 502.50 ZM 272.69 467.74 C272.67,467.84 272.64,467.91 272.61,467.97 C272.66,465.05 272.73,462.18 272.82,459.40 C273.02,458.48 273.25,457.65 273.50,457.00 C274.85,453.50 274.85,453.51 274.92,460.31 C274.97,464.24 274.61,466.88 274.08,466.55 C273.57,466.23 272.94,466.77 272.69,467.74 ZM 619.64 841.50 C620.45,842.31 620.65,842.69 619.84,842.85 C617.59,842.75 615.42,842.63 613.33,842.51 C612.35,842.25 611.58,841.88 611.21,841.46 C610.10,840.21 610.50,840.00 614.03,840.00 C616.35,840.00 618.80,840.65 619.64,841.50 ZM 523.20 939.06 C523.93,938.58 525.64,938.43 527.43,938.50 C529.41,938.84 531.26,939.21 532.56,939.52 C532.84,939.69 533.00,939.87 533.00,940.07 C533.00,941.29 531.74,941.70 529.50,941.22 C528.40,940.98 526.99,940.38 526.38,939.88 C525.76,939.37 524.41,939.23 523.38,939.56 C521.69,940.09 521.67,940.04 523.20,939.06 ZM 630.64 946.50 C630.74,946.23 630.93,946.00 631.20,945.81 C632.96,945.36 635.05,945.10 636.77,945.29 C637.32,945.35 637.86,945.39 638.37,945.41 C638.44,945.64 638.16,945.98 637.64,946.50 C636.82,947.33 634.77,948.00 633.10,948.00 C630.81,948.00 630.20,947.63 630.64,946.50 ZM 604.36 840.50 C604.65,841.25 604.47,841.66 603.59,841.86 C601.83,841.72 600.15,841.57 598.57,841.42 C598.10,841.18 597.78,840.87 597.64,840.50 C597.20,839.35 597.85,839.00 600.42,839.00 C602.49,839.00 604.01,839.58 604.36,840.50 ZM 274.50 450.00 C273.78,450.60 273.40,450.80 273.20,450.49 C273.28,449.15 273.36,447.85 273.44,446.59 C273.71,445.66 274.09,444.72 274.50,444.00 L 275.93 441.50 L 275.96 445.13 C275.98,447.17 275.34,449.30 274.50,450.00 ZM 274.25 512.68 C273.96,512.05 273.70,511.30 273.49,510.57 C273.40,509.24 273.31,507.86 273.24,506.44 C273.45,506.35 273.84,506.70 274.56,507.42 C275.51,508.37 276.00,510.26 275.81,512.22 L 275.50 515.46 ZM 570.69 946.63 C570.37,945.81 570.85,945.44 572.54,945.37 C574.23,945.46 575.75,945.69 576.95,945.99 C576.93,946.03 576.89,946.07 576.82,946.11 C576.15,946.53 576.26,946.95 577.14,947.30 C577.89,947.60 576.86,947.88 574.86,947.92 C572.63,947.97 571.01,947.47 570.69,946.63 ZM 238.25 615.26 C237.46,614.99 237.05,613.11 237.14,610.17 C237.22,607.38 237.46,606.51 237.74,608.00 C237.99,609.38 238.65,610.78 239.19,611.11 C240.60,611.99 239.75,615.77 238.25,615.26 ZM 238.00 540.69 C238.00,539.35 238.68,537.68 239.50,537.00 C240.76,535.96 241.00,536.11 241.00,537.95 C241.00,539.16 240.32,540.82 239.50,541.64 C238.17,542.98 238.00,542.87 238.00,540.69 ZM 275.25 521.86 C274.92,521.53 274.61,520.97 274.39,520.33 L 274.35 520.00 C274.24,519.09 274.13,518.13 274.03,517.12 C274.12,516.11 274.45,516.31 275.57,517.43 C276.43,518.29 277.00,519.93 276.82,521.06 C276.56,522.72 276.25,522.88 275.25,521.86 ZM 237.12 551.68 C237.05,550.13 237.68,548.18 238.50,547.36 C239.83,546.02 240.00,546.14 240.00,548.43 C240.00,549.84 239.58,551.00 239.07,551.00 C238.56,551.00 237.94,551.79 237.69,552.75 C237.42,553.80 237.19,553.37 237.12,551.68 ZM 361.52 715.97 C361.59,716.97 361.62,717.56 361.51,717.78 C360.75,716.91 359.99,716.04 359.23,715.16 C358.90,714.43 358.62,713.61 358.48,712.91 C358.07,710.77 358.15,710.72 359.70,712.27 C360.62,713.19 361.43,714.85 361.52,715.97 ZM 568.42 215.96 C568.75,216.45 568.94,216.99 568.89,217.38 C568.85,217.72 568.83,226.60 568.84,240.26 C568.73,226.77 568.58,217.58 568.42,215.96 ZM 470.00 921.00 L 470.00 921.00 C470.21,921.08 470.43,921.15 470.64,921.23 C470.86,921.42 471.00,921.69 471.00,922.00 C471.00,922.55 470.55,923.00 470.00,923.00 C469.45,923.00 469.00,922.55 469.00,922.00 C469.00,921.45 469.45,921.00 470.00,921.00 ZM 464.00 920.00 C464.00,919.53 464.32,919.14 464.76,919.03 C465.11,919.17 465.47,919.30 465.83,919.44 C465.94,919.60 466.00,919.79 466.00,920.00 C466.00,920.55 465.55,921.00 465.00,921.00 C464.45,921.00 464.00,920.55 464.00,920.00 ZM 375.00 730.62 C375.00,730.41 374.21,729.63 373.25,728.87 C371.66,727.63 371.63,727.66 372.87,729.25 C374.18,730.92 375.00,731.45 375.00,730.62 ZM 373.00 865.62 C373.00,865.41 372.21,864.63 371.25,863.87 C369.66,862.63 369.63,862.66 370.87,864.25 C372.18,865.92 373.00,866.45 373.00,865.62 ZM 568.96 320.59 L 568.99 337.31 C568.94,335.53 568.89,333.41 568.85,330.93 C568.90,328.17 568.94,324.78 568.96,320.59 ZM 479.86 209.18 C478.31,211.14 477.20,213.20 477.54,214.05 C477.53,214.03 477.51,214.02 477.50,214.01 C477.06,213.29 478.24,211.19 479.86,209.18 ZM 604.83 351.04 C604.86,351.13 604.90,351.22 604.93,351.32 C605.68,353.28 606.00,424.76 606.00,587.94 C606.00,425.18 605.68,353.27 604.94,351.32 C604.90,351.23 604.87,351.13 604.83,351.04 ZM 567.59 215.13 C567.66,215.16 567.72,215.19 567.76,215.23 C567.88,215.32 567.99,215.43 568.09,215.54 C568.00,215.51 567.90,215.49 567.78,215.48 C567.72,215.34 567.66,215.22 567.59,215.13 Z" fill="rgb(26,26,26)"/>
<path d="M 682.36 831.36 C674.21,827.40 664.72,826.00 642.50,825.50 C635.35,825.33 626.58,824.93 623.00,824.60 C619.42,824.27 614.76,824.01 612.64,824.03 C610.52,824.05 608.16,823.54 607.39,822.91 C606.21,821.93 606.00,786.43 606.00,587.94 C606.00,425.18 605.68,353.27 604.94,351.32 C604.35,349.77 602.69,347.26 601.25,345.75 L 598.63 343.00 L 583.81 343.00 L 569.00 343.00 L 568.88 280.75 C568.82,246.51 568.82,218.00 568.89,217.38 C568.97,216.77 568.46,215.80 567.76,215.23 C565.94,213.73 538.00,213.35 505.90,214.39 C485.54,215.05 478.11,214.98 477.59,214.15 C476.67,212.65 481.76,206.04 484.69,204.93 C485.96,204.44 487.00,203.36 487.00,202.52 C487.00,201.69 487.34,201.00 487.75,201.00 C488.16,200.99 490.09,199.53 492.04,197.75 C493.98,195.96 496.91,193.64 498.54,192.60 C501.91,190.43 506.69,186.21 511.94,180.75 C513.92,178.69 516.04,177.00 516.65,177.00 C517.26,177.00 518.96,175.43 520.43,173.50 C521.90,171.57 523.62,170.00 524.25,170.00 C525.35,170.00 526.69,168.81 535.52,160.01 C537.73,157.80 539.83,156.00 540.17,156.00 C540.52,156.00 542.37,154.54 544.29,152.75 C546.21,150.96 549.52,148.05 551.64,146.28 C559.46,139.75 566.58,133.57 569.50,130.78 C571.15,129.20 573.85,126.63 575.50,125.07 C577.15,123.50 579.51,121.70 580.75,121.07 C581.99,120.44 583.00,119.34 583.00,118.62 C583.00,117.90 584.58,116.47 586.50,115.43 C588.42,114.39 590.00,113.22 590.00,112.81 C590.00,111.56 595.32,107.08 596.18,107.61 C596.63,107.89 597.52,106.96 598.16,105.56 C598.80,104.15 599.87,103.00 600.55,103.00 C601.66,103.00 605.60,99.78 614.59,91.50 C616.39,89.85 619.97,86.70 622.57,84.50 C625.16,82.30 627.90,79.90 628.65,79.17 C629.79,78.07 630.52,78.06 633.01,79.16 C634.65,79.89 636.00,81.04 636.00,81.71 C636.00,82.39 637.80,83.97 639.99,85.22 C642.25,86.51 643.99,88.26 643.99,89.25 C644.00,90.21 644.59,91.00 645.31,91.00 C646.74,91.00 651.93,95.30 661.31,104.25 C664.62,107.41 667.67,110.00 668.08,110.00 C668.49,110.00 669.96,111.35 671.35,113.00 C672.73,114.65 674.31,116.00 674.85,116.00 C675.38,116.00 676.88,117.24 678.17,118.75 C679.46,120.26 681.80,122.17 683.37,122.98 C684.94,123.79 686.62,125.51 687.11,126.79 C687.60,128.07 688.42,128.86 688.94,128.54 C689.46,128.22 691.14,129.54 692.69,131.48 C694.24,133.42 695.95,135.00 696.50,135.00 C697.05,135.00 699.47,136.80 701.88,139.00 C704.28,141.20 706.87,143.00 707.63,143.00 C708.38,143.00 709.00,143.90 709.00,145.00 C709.00,146.10 709.65,147.00 710.45,147.00 C712.24,147.00 717.00,151.30 717.00,152.92 C717.00,153.58 717.41,153.86 717.92,153.55 C718.43,153.24 720.11,154.46 721.67,156.27 C723.23,158.07 725.81,160.21 727.41,161.03 C729.01,161.84 730.52,163.29 730.77,164.25 C731.03,165.21 731.74,166.01 732.37,166.03 C733.99,166.08 737.48,169.19 738.29,171.31 C738.67,172.31 739.35,172.90 739.80,172.62 C740.26,172.34 742.40,173.71 744.56,175.66 C746.73,177.61 749.51,179.89 750.75,180.72 C751.99,181.55 753.00,182.85 753.00,183.62 C753.00,184.38 753.66,185.00 754.46,185.00 C755.26,185.00 757.17,186.57 758.71,188.50 C760.24,190.42 762.07,192.00 762.76,192.00 C763.46,192.00 766.75,194.70 770.08,198.00 C773.41,201.30 776.48,204.00 776.90,204.00 C778.49,204.00 784.93,212.09 783.72,212.54 C783.05,212.79 762.25,213.11 737.50,213.25 L 692.50 213.50 L 692.00 523.92 C691.67,729.61 691.16,834.42 690.50,834.58 C689.95,834.72 686.29,833.27 682.36,831.36 ZM 581.83 819.50 C581.55,819.22 578.66,818.51 575.41,817.91 C567.51,816.47 548.36,810.79 533.00,805.33 C521.01,801.07 519.22,800.39 512.50,797.50 C510.85,796.79 508.03,795.66 506.23,794.98 C504.43,794.30 502.63,793.24 502.23,792.62 C501.83,792.00 501.27,724.66 501.00,642.96 L 500.50 494.42 L 498.00 491.30 C496.62,489.59 494.60,487.90 493.50,487.55 C492.40,487.19 484.98,486.81 477.00,486.70 L 462.50 486.50 L 462.00 427.80 C461.73,395.52 461.75,368.07 462.04,366.80 L 462.59 364.50 L 523.43 364.24 C567.54,364.06 584.65,364.30 585.64,365.11 C587.53,366.69 587.69,816.91 585.80,818.80 C584.55,820.05 582.70,820.37 581.83,819.50 ZM 468.25 775.92 C465.36,774.22 463.00,772.42 463.00,771.92 C463.00,771.41 462.29,771.00 461.43,771.00 C460.57,771.00 457.90,769.65 455.50,768.00 C453.10,766.35 450.85,765.00 450.50,765.00 C450.15,765.00 448.21,763.67 446.18,762.04 C444.16,760.41 437.77,755.41 432.00,750.93 C426.23,746.45 419.92,741.26 418.00,739.41 C416.08,737.55 411.04,732.76 406.80,728.77 C397.45,719.93 398.34,720.81 388.25,710.52 C383.71,705.89 380.00,701.63 380.00,701.05 C380.00,700.47 379.44,700.00 378.75,700.00 C378.06,700.00 376.60,698.65 375.50,697.00 C374.40,695.35 373.16,694.00 372.75,694.00 C372.34,694.00 372.00,693.52 372.00,692.92 C372.00,692.33 368.40,687.05 364.00,681.19 L 356.00 670.54 L 356.00 589.79 L 356.00 509.04 L 358.71 508.36 C362.44,507.42 477.21,508.81 478.21,509.81 C478.65,510.25 478.89,570.88 478.75,644.55 L 478.50 778.50 L 476.00 778.75 C474.62,778.89 471.15,777.62 468.25,775.92 Z" fill="rgb(216,216,216)"/>
</g>
</svg>